<svg width="41" height="55" viewBox="0 0 41 55" fill="none" xmlns="http://www.w3.org/2000/svg">
<path d="M16.721 53.1253C16.9385 53.3859 17.2741 53.5076 17.6038 53.4583L36.0219 50.7023C36.5554 50.6224 36.9252 50.1121 36.8438 49.5681L36.3747 46.433C36.1143 44.6924 36.3364 42.9301 37.0276 41.3201C37.8654 39.3646 38.1396 37.2204 37.8229 35.104L33.9441 9.18258C33.6259 7.05626 31.6696 5.5795 29.5843 5.89153C27.4991 6.20356 26.0608 8.18827 26.3789 10.3146L27.3912 17.0793C26.791 16.8455 26.1407 16.7406 25.4715 16.8408C24.3464 17.0091 23.4244 17.6729 22.8541 18.5671C22.0471 17.879 20.9712 17.5142 19.8461 17.6825C19.1769 17.7827 18.5761 18.0748 18.0803 18.4725L16.3681 7.02994C16.0499 4.90361 14.0936 3.42686 12.0084 3.73889C9.9231 4.05092 8.48478 6.03563 8.80296 8.16195L11.4934 26.1418L7.73025 26.7049C5.28614 27.0706 3.60125 29.3956 3.97419 31.8878L4.908 38.1283C5.03675 38.9887 5.40353 39.7832 5.95771 40.4384L16.721 53.1253ZM25.7689 18.8286C26.7873 18.6762 27.7375 19.3935 27.8929 20.432L28.7039 25.8516C28.8592 26.8901 28.1606 27.8541 27.1423 28.0064C26.1239 28.1588 25.1737 27.4416 25.0183 26.4031L24.2073 20.9835C24.0422 19.9465 24.7505 18.981 25.7689 18.8286ZM20.1339 19.6718C21.1523 19.5194 22.1025 20.2367 22.2578 21.2752L23.0688 26.6948C23.1961 27.5454 22.7483 28.3303 22.0273 28.6808C22.1799 27.7783 22.1989 26.8452 22.0553 25.8859L22.0095 25.5793C21.9281 25.0354 21.425 24.6556 20.8916 24.7355L19.0488 25.0112L18.5723 21.8267C18.4169 20.7882 19.1252 19.8228 20.1339 19.6718ZM10.733 7.87314C10.5776 6.83471 11.2763 5.8707 12.2946 5.71832C13.313 5.56593 14.2632 6.28321 14.4186 7.32165L16.6325 22.1169L17.109 25.3015L13.4235 25.853L10.733 7.87314ZM5.90426 31.599C5.69411 30.1946 6.63929 28.8904 8.01653 28.6843L20.1886 26.8629C20.3508 30.2664 17.9609 33.3136 14.5857 33.8187C14.1783 33.8796 13.8497 34.2018 13.7732 34.6177C13.6966 35.0336 13.8892 35.4598 14.2381 35.6705C14.3901 35.759 17.9277 37.9294 17.0936 41.1685C16.9557 41.7048 17.2661 42.2549 17.7933 42.3985C18.3205 42.542 18.8586 42.2289 18.9965 41.6926C19.7602 38.7775 18.2173 36.5513 16.8814 35.2446C18.8979 34.407 20.4939 32.8133 21.3817 30.8604C21.5302 30.8584 21.6786 30.8564 21.8241 30.8346C22.9491 30.6663 23.8712 30.0025 24.4414 29.1083C25.2581 29.795 26.3243 30.1612 27.4494 29.9929C29.5347 29.6808 30.973 27.6961 30.6548 25.5698L29.8438 20.1501L28.3284 10.0229C28.173 8.98445 28.8716 8.02045 29.89 7.86806C30.9084 7.71567 31.8586 8.43295 32.014 9.47139L35.8928 35.3928C36.1532 37.1334 35.9325 38.9056 35.2399 40.5057C34.4021 42.4612 34.1279 44.6054 34.4446 46.7218L34.7658 48.868L17.851 51.399L7.43025 39.1463C7.1174 38.7785 6.91058 38.3241 6.83955 37.8494L5.90426 31.599Z" fill="white"/>
</svg>
