<svg width="39" height="28" viewBox="0 0 39 28" fill="none" xmlns="http://www.w3.org/2000/svg">
<mask id="path-1-inside-1_43_335" fill="white">
<rect y="18" width="36" height="10" rx="1"/>
</mask>
<rect y="18" width="36" height="10" rx="1" stroke="white" stroke-width="2.6" mask="url(#path-1-inside-1_43_335)"/>
<mask id="path-2-inside-2_43_335" fill="white">
<rect x="3" y="9" width="36" height="10" rx="1"/>
</mask>
<rect x="3" y="9" width="36" height="10" rx="1" stroke="white" stroke-width="2.6" mask="url(#path-2-inside-2_43_335)"/>
<mask id="path-3-inside-3_43_335" fill="white">
<rect width="36" height="10" rx="1"/>
</mask>
<rect width="36" height="10" rx="1" stroke="white" stroke-width="2.6" mask="url(#path-3-inside-3_43_335)"/>
<path d="M15.7855 1.04341C15.7594 0.834514 15.9223 0.65 16.1328 0.65H20.8672C21.0777 0.65 21.2406 0.834513 21.2145 1.04341L20.9645 3.04341C20.9426 3.21856 20.7937 3.35 20.6172 3.35H16.3828C16.2063 3.35 16.0574 3.21856 16.0355 3.04341L15.7855 1.04341Z" stroke="white" stroke-width="1.3"/>
<path d="M15.7855 19.0434C15.7594 18.8345 15.9223 18.65 16.1328 18.65H20.8672C21.0777 18.65 21.2406 18.8345 21.2145 19.0434L20.9645 21.0434C20.9426 21.2186 20.7937 21.35 20.6172 21.35H16.3828C16.2063 21.35 16.0574 21.2186 16.0355 21.0434L15.7855 19.0434Z" stroke="white" stroke-width="1.3"/>
<path d="M18.7855 10.0434C18.7594 9.83451 18.9223 9.65 19.1328 9.65H23.8672C24.0777 9.65 24.2406 9.83451 24.2145 10.0434L23.9645 12.0434C23.9426 12.2186 23.7937 12.35 23.6172 12.35H19.3828C19.2063 12.35 19.0574 12.2186 19.0355 12.0434L18.7855 10.0434Z" stroke="white" stroke-width="1.3"/>
</svg>
