<svg width="69" height="43" viewBox="0 0 69 43" fill="none" xmlns="http://www.w3.org/2000/svg">
<path d="M8.89791 36.7265C21.5704 41.7131 54.808 37.8062 64.0534 27.6153C64.9949 26.5774 65.4107 25.7761 65.8941 24.4978C64.5791 23.1731 62.9349 22.0184 61.0382 21.0334C61.8602 19.9805 63.2744 17.6055 65.3133 12.2776L63.5623 11.5832C62.9984 13.0569 60.7371 19.2582 59.3024 20.2067C57.1556 19.252 54.9969 18.603 52.4109 18.0322C53.4026 16.5778 54.9401 13.7315 57.0639 8.18364L55.313 7.48921C52.2933 15.3797 50.9255 17.2219 50.4829 17.6484C48.3648 17.2715 46.1518 17.0158 43.8865 16.8834C45.0245 15.1718 46.7456 11.9219 49.1026 5.76671L47.3525 5.07218C43.924 14.0256 42.3303 16.2489 41.7873 16.7967C39.0433 16.7283 36.2463 16.8341 33.4712 17.1186C34.6732 15.3107 36.5038 11.8597 39.0185 5.28944L37.2684 4.59491C32.5588 16.8984 31.0743 17.2919 31.0705 17.2924C31.0835 17.3295 22.0298 19.3821 21.0386 19.7103C22.4138 17.5805 24.4642 13.6383 27.2525 6.35176L25.5023 5.65723C20.049 19.9041 18.5625 20.3004 18.5594 20.3008C18.3361 20.7838 12.6579 23.4826 11.5588 24.2228C12.8168 21.873 14.423 18.3845 16.4033 13.2139L14.6524 12.5195C10.9632 22.1573 6.80014 27.0202 3.65577 33.4218C5.32666 34.9783 6.76048 35.8832 8.89791 36.7265ZM9.56813 34.9561C8.13792 34.3936 6.90097 33.7134 5.90326 32.9084C13.0283 17.3384 52.0037 14.5378 63.6644 24.958C63.4172 25.4158 63.0838 25.873 62.671 26.3278C53.9713 35.9182 21.5351 39.6672 9.56813 34.9561Z" fill="white"/>
<path fill-rule="evenodd" clip-rule="evenodd" d="M29.2812 20.7038C25.3492 21.2564 22.6154 24.9367 23.1757 28.9232C23.7359 32.9096 27.3783 35.6938 31.3102 35.1412C35.2429 34.5885 37.9768 30.9082 37.4165 26.9218C36.8562 22.9353 33.2139 20.1511 29.2812 20.7038ZM27.0172 24.5633C25.8035 24.7339 24.9603 25.8691 25.1332 27.0996C25.3061 28.3301 26.4296 29.1889 27.6433 29.0183C28.857 28.8478 29.7002 27.7126 29.5273 26.4821C29.3543 25.2516 28.2309 24.3928 27.0172 24.5633Z" fill="white"/>
</svg>
