<svg width="30" height="30" viewBox="0 0 30 30" fill="none" xmlns="http://www.w3.org/2000/svg">
<path d="M15 0L17.7195 2.20583L21.101 1.29682L22.6882 4.41806L26.1472 4.96304L26.3276 8.46L29.2658 10.3647L28.0083 13.6328L29.9178 16.5679L27.4398 19.0419L27.9904 22.5L24.7203 23.7522L23.8168 27.1353L20.3201 26.9492L18.1187 29.6722L15 28.08L11.8813 29.6722L9.67988 26.9492L6.18322 27.1353L5.27967 23.7522L2.00962 22.5L2.56018 19.0419L0.0821714 16.5679L1.99165 13.6328L0.734152 10.3647L3.67239 8.46L3.85283 4.96304L7.31177 4.41806L8.89895 1.29682L12.2805 2.20583L15 0Z" fill="#FF3D00"/>
<path d="M17.4545 9.52625C17.3438 8.95632 17.0384 8.44259 16.5907 8.07296C16.143 7.70333 15.5807 7.50079 15.0001 7.5C14.8675 7.5 14.7403 7.55268 14.6466 7.64645C14.5528 7.74021 14.5001 7.86739 14.5001 8C14.5001 8.13261 14.5528 8.25979 14.6466 8.35355C14.7403 8.44732 14.8675 8.5 15.0001 8.5C15.3177 8.5 15.6272 8.60083 15.8838 8.78795C16.1405 8.97508 16.3311 9.23884 16.4282 9.54125C15.4768 9.67974 14.6069 10.1559 13.9775 10.8827C13.3481 11.6095 13.0012 12.5385 13.0001 13.5C13.0001 16.4219 11.3907 18.375 8.21699 19.3125C7.99989 19.3758 7.81066 19.5108 7.68016 19.6954C7.54966 19.8801 7.4856 20.1036 7.49844 20.3293C7.51128 20.5551 7.60025 20.7698 7.75084 20.9385C7.90143 21.1072 8.10475 21.2199 8.32761 21.2581C9.267 21.4205 10.2187 21.5014 11.172 21.5C13.7207 21.5 16.557 20.9281 18.5176 19.2838C20.1651 17.9025 21.0001 15.9563 21.0001 13.5C20.9991 12.5181 20.6373 11.5709 19.9836 10.8383C19.3299 10.1057 18.4299 9.63873 17.4545 9.52625ZM17.0001 10.5C17.6244 10.5008 18.2329 10.6961 18.7411 11.0587C19.2492 11.4212 19.6318 11.9331 19.8357 12.5231L19.0001 12.9375L17.2239 12.0519C17.1544 12.0171 17.0778 11.999 17.0001 11.999C16.9224 11.999 16.8458 12.0171 16.7764 12.0519L15.0001 12.9375L14.1645 12.52C14.369 11.9306 14.7518 11.4195 15.26 11.0575C15.7681 10.6955 16.3763 10.5007 17.0001 10.5ZM17.8751 18.5188C16.7501 19.4606 15.1501 20.0975 13.2426 20.3606C11.6663 20.5691 10.0676 20.5396 8.50011 20.2731C12.077 19.2188 13.977 16.8981 14.0001 13.5594L14.7776 13.9481C14.8471 13.9829 14.9237 14.001 15.0014 14.001C15.079 14.001 15.1556 13.9829 15.2251 13.9481L17.0001 13.0581L18.7764 13.9463C18.8458 13.981 18.9224 13.9991 19.0001 13.9991C19.0778 13.9991 19.1544 13.981 19.2239 13.9463L19.9995 13.5588C19.9864 15.6775 19.272 17.3463 17.8751 18.5181V18.5188Z" fill="white"/>
</svg>
