<svg width="30" height="30" viewBox="0 0 30 30" fill="none" xmlns="http://www.w3.org/2000/svg">
<path d="M15 0L17.7195 2.20583L21.101 1.29682L22.6882 4.41806L26.1472 4.96304L26.3276 8.46L29.2658 10.3647L28.0083 13.6328L29.9178 16.5679L27.4398 19.0419L27.9904 22.5L24.7203 23.7522L23.8168 27.1353L20.3201 26.9492L18.1187 29.6722L15 28.08L11.8813 29.6722L9.67988 26.9492L6.18322 27.1353L5.27967 23.7522L2.00962 22.5L2.56018 19.0419L0.0821714 16.5679L1.99165 13.6328L0.734152 10.3647L3.67239 8.46L3.85283 4.96304L7.31177 4.41806L8.89895 1.29682L12.2805 2.20583L15 0Z" fill="#62C400"/>
<path d="M20.9657 9.50445C20.9585 9.38213 20.9067 9.26669 20.8201 9.18004C20.7334 9.0934 20.618 9.04159 20.4957 9.03445C15.7375 8.75507 11.9263 10.1876 10.3013 12.8751C9.73801 13.7944 9.46044 14.8603 9.50378 15.9376C9.53941 16.9326 9.82941 17.9376 10.3657 18.9282L9.14628 20.1469C9.05246 20.2408 8.99976 20.368 8.99976 20.5007C8.99976 20.6334 9.05246 20.7606 9.14628 20.8544C9.2401 20.9483 9.36735 21.001 9.50003 21.001C9.63272 21.001 9.75996 20.9483 9.85378 20.8544L11.0725 19.6351C12.0625 20.1707 13.0682 20.4607 14.0625 20.4963C14.1321 20.4988 14.2015 20.5001 14.2707 20.5001C15.278 20.5028 16.2663 20.2254 17.125 19.6988C19.8125 18.0738 21.2457 14.2632 20.9657 9.50445ZM16.6094 18.8438C15.1875 19.7051 13.5044 19.7188 11.815 18.8919L17.3544 13.3532C17.4009 13.3067 17.4377 13.2516 17.4629 13.1909C17.488 13.1302 17.5009 13.0651 17.5009 12.9994C17.5009 12.9337 17.488 12.8687 17.4629 12.808C17.4377 12.7473 17.4009 12.6922 17.3544 12.6457C17.308 12.5992 17.2528 12.5624 17.1921 12.5373C17.1314 12.5121 17.0664 12.4992 17.0007 12.4992C16.935 12.4992 16.8699 12.5121 16.8092 12.5373C16.7485 12.5624 16.6934 12.5992 16.6469 12.6457L11.1082 18.1876C10.2838 16.5001 10.2957 14.8126 11.1563 13.3932C12.5369 11.1138 15.8188 9.8657 19.9882 10.0144C20.1375 14.1807 18.8888 17.4632 16.6094 18.8438Z" fill="white"/>
</svg>
