<svg width="21" height="21" viewBox="0 0 21 21" fill="none" xmlns="http://www.w3.org/2000/svg">
<path d="M10.5 2C8.81886 2 7.17547 2.49852 5.77766 3.43251C4.37984 4.3665 3.29037 5.69402 2.64703 7.24719C2.00368 8.80036 1.83535 10.5094 2.16333 12.1583C2.4913 13.8071 3.30085 15.3217 4.4896 16.5104C5.67834 17.6992 7.1929 18.5087 8.84173 18.8367C10.4906 19.1646 12.1996 18.9963 13.7528 18.353C15.306 17.7096 16.6335 16.6202 17.5675 15.2223C18.5015 13.8245 19 12.1811 19 10.5C18.9976 8.24639 18.1013 6.08576 16.5078 4.49222C14.9142 2.89868 12.7536 2.00238 10.5 2ZM10.5 17.6923C9.0775 17.6923 7.68694 17.2705 6.50417 16.4802C5.3214 15.6899 4.39955 14.5666 3.85518 13.2524C3.31081 11.9382 3.16838 10.492 3.44589 9.09685C3.72341 7.70168 4.40841 6.42013 5.41427 5.41427C6.42014 4.40841 7.70168 3.72341 9.09685 3.44589C10.492 3.16837 11.9382 3.31081 13.2524 3.85517C14.5666 4.39954 15.6899 5.3214 16.4802 6.50417C17.2705 7.68694 17.6923 9.07749 17.6923 10.5C17.6901 12.4069 16.9317 14.235 15.5833 15.5833C14.235 16.9317 12.4069 17.6901 10.5 17.6923ZM14.4231 10.5C14.4231 10.6734 14.3542 10.8397 14.2316 10.9623C14.109 11.085 13.9426 11.1538 13.7692 11.1538H11.1538V13.7692C11.1538 13.9426 11.085 14.1089 10.9623 14.2316C10.8397 14.3542 10.6734 14.4231 10.5 14.4231C10.3266 14.4231 10.1603 14.3542 10.0377 14.2316C9.91504 14.1089 9.84616 13.9426 9.84616 13.7692V11.1538H7.23077C7.05736 11.1538 6.89105 11.085 6.76843 10.9623C6.64581 10.8397 6.57693 10.6734 6.57693 10.5C6.57693 10.3266 6.64581 10.1603 6.76843 10.0377C6.89105 9.91504 7.05736 9.84615 7.23077 9.84615H9.84616V7.23077C9.84616 7.05736 9.91504 6.89105 10.0377 6.76843C10.1603 6.64581 10.3266 6.57692 10.5 6.57692C10.6734 6.57692 10.8397 6.64581 10.9623 6.76843C11.085 6.89105 11.1538 7.05736 11.1538 7.23077V9.84615H13.7692C13.9426 9.84615 14.109 9.91504 14.2316 10.0377C14.3542 10.1603 14.4231 10.3266 14.4231 10.5Z" fill="#6B6B6B"/>
</svg>
