<svg width="21" height="21" viewBox="0 0 21 21" fill="none" xmlns="http://www.w3.org/2000/svg">
<path d="M19.959 11.1563L11.8125 3.00973C11.6911 2.88733 11.5465 2.79028 11.3872 2.72423C11.228 2.65818 11.0572 2.62446 10.8847 2.62501H3.28126C3.10721 2.62501 2.94029 2.69415 2.81722 2.81722C2.69415 2.94029 2.62501 3.10721 2.62501 3.28126V10.8847C2.62446 11.0572 2.65818 11.228 2.72423 11.3872C2.79028 11.5465 2.88733 11.6911 3.00973 11.8125L11.1563 19.959C11.2781 20.0809 11.4228 20.1776 11.5821 20.2436C11.7414 20.3096 11.9121 20.3436 12.0844 20.3436C12.2568 20.3436 12.4275 20.3096 12.5868 20.2436C12.746 20.1776 12.8907 20.0809 13.0126 19.959L19.959 13.0126C20.0809 12.8907 20.1776 12.746 20.2436 12.5868C20.3096 12.4275 20.3436 12.2568 20.3436 12.0844C20.3436 11.9121 20.3096 11.7414 20.2436 11.5821C20.1776 11.4228 20.0809 11.2781 19.959 11.1563ZM12.084 19.0313L3.93751 10.8847V3.93751H10.8847L19.0313 12.084L12.084 19.0313ZM7.87501 6.89063C7.87501 7.08532 7.81727 7.27564 7.70911 7.43752C7.60094 7.5994 7.44721 7.72557 7.26733 7.80008C7.08746 7.87458 6.88954 7.89407 6.69859 7.85609C6.50764 7.81811 6.33224 7.72436 6.19457 7.58669C6.05691 7.44902 5.96315 7.27362 5.92517 7.08267C5.88719 6.89172 5.90668 6.6938 5.98119 6.51393C6.05569 6.33406 6.18186 6.18032 6.34374 6.07215C6.50562 5.96399 6.69594 5.90626 6.89063 5.90626C7.1517 5.90626 7.40208 6.00997 7.58669 6.19457C7.7713 6.37918 7.87501 6.62956 7.87501 6.89063Z" fill="#6B6B6B"/>
</svg>
