<svg width="21" height="21" viewBox="0 0 21 21" fill="none" xmlns="http://www.w3.org/2000/svg">
<path d="M19.8181 3.66427L17.3357 1.18187C17.2193 1.06542 17.0613 1 16.8967 1C16.732 1 16.574 1.06542 16.4576 1.18187C16.3411 1.29832 16.2757 1.45626 16.2757 1.62095C16.2757 1.78563 16.3411 1.94357 16.4576 2.06002L16.5724 2.17406L12.2926 5.38411L9.32765 5.97756C9.2076 6.00161 9.09727 6.06042 9.01037 6.14667L2.54527 12.6102C2.19614 12.9594 2 13.4329 2 13.9267C2 14.4204 2.19614 14.894 2.54527 15.2431L5.75687 18.4547C6.10603 18.8039 6.57956 19 7.07332 19C7.56708 19 8.04062 18.8039 8.38977 18.4547L14.8533 11.992C14.9398 11.9052 14.9986 11.7948 15.0224 11.6747L15.6159 8.70975L18.8259 4.42994L18.94 4.54475C18.9976 4.60241 19.0661 4.64815 19.1414 4.67935C19.2168 4.71056 19.2975 4.72662 19.3791 4.72662C19.4606 4.72662 19.5413 4.71056 19.6167 4.67935C19.692 4.64815 19.7605 4.60241 19.8181 4.54475C19.8758 4.48709 19.9215 4.41864 19.9527 4.3433C19.9839 4.26796 20 4.18722 20 4.10567C20 4.02413 19.9839 3.94339 19.9527 3.86805C19.9215 3.79271 19.8758 3.72426 19.8181 3.6666V3.66427ZM8.20825 8.70432L12.2957 12.7918L8.82885 16.2586L4.74142 12.1712L8.20825 8.70432ZM7.07332 17.7566C6.99189 17.7568 6.91123 17.7408 6.83599 17.7097C6.76076 17.6785 6.69245 17.6328 6.63502 17.575L3.42497 14.365C3.30867 14.2486 3.24334 14.0908 3.24334 13.9263C3.24334 13.7618 3.30867 13.604 3.42497 13.4876L3.86404 13.0485L7.95147 17.136L7.51007 17.575C7.39416 17.6908 7.23716 17.7561 7.07332 17.7566ZM14.5384 8.07519C14.4827 8.14923 14.4445 8.23488 14.4267 8.32576L13.8425 11.2449L13.173 11.9144L9.08562 7.82695L9.75509 7.15748L12.6742 6.57334C12.7651 6.55546 12.8508 6.51728 12.9248 6.46163L17.4591 3.06074L17.9393 3.54093L14.5384 8.07519Z" fill="#6B6B6B"/>
</svg>
