<svg width="21" height="21" viewBox="0 0 21 21" fill="none" xmlns="http://www.w3.org/2000/svg">
<path d="M20.9574 4.42868C20.9134 4.24859 20.8335 4.0789 20.7224 3.92945C20.6113 3.78 20.4711 3.65378 20.3101 3.5581C17.5015 1.88464 14.2815 1 10.9989 1C7.71636 1 4.49637 1.88464 1.68773 3.5581C1.52717 3.65401 1.38737 3.78017 1.27636 3.92935C1.16534 4.07853 1.08527 4.24781 1.04074 4.4275C0.996213 4.60719 0.98809 4.79376 1.01684 4.97654C1.04559 5.15933 1.11065 5.33473 1.20829 5.49273L9.77933 19.3227C9.90666 19.5295 10.0859 19.7004 10.2999 19.819C10.5138 19.9377 10.7552 20 11.0007 20C11.2462 20 11.4876 19.9377 11.7015 19.819C11.9155 19.7004 12.0947 19.5295 12.2221 19.3227L20.7931 5.49273C20.8909 5.335 20.9557 5.15968 20.9839 4.97699C21.0122 4.79429 21.0031 4.6079 20.9574 4.42868ZM5.24828 9.30923C5.48036 9.09381 5.75833 8.93213 6.06192 8.83597C6.3655 8.73982 6.68705 8.71162 7.00311 8.75343C7.31917 8.79524 7.62177 8.90601 7.88883 9.07766C8.1559 9.2493 8.3807 9.4775 8.54685 9.7456C8.71299 10.0137 8.81628 10.3149 8.84919 10.6274C8.8821 10.9398 8.8438 11.2555 8.73707 11.5515C8.63035 11.8475 8.45789 12.1163 8.23229 12.3382C8.00668 12.5602 7.73362 12.7298 7.43301 12.8347L5.24828 9.30923ZM13.0979 15.1967C12.7402 14.8645 12.5094 14.4212 12.4442 13.9413C12.3789 13.4614 12.4832 12.9739 12.7395 12.5607C12.9958 12.1475 13.3886 11.8337 13.852 11.6719C14.3154 11.5101 14.8211 11.5102 15.2844 11.6721L13.0979 15.1967ZM16.038 10.4542C15.2441 10.0993 14.3458 10.0426 13.5125 10.295C12.6791 10.5473 11.9683 11.0912 11.5139 11.8241C11.0596 12.557 10.8931 13.4283 11.0459 14.2737C11.1988 15.1191 11.6603 15.8803 12.3435 16.4137L10.9989 18.5867L8.18654 14.0517C8.64827 13.8468 9.06046 13.5475 9.39576 13.1736C9.73106 12.7998 9.98181 12.36 10.1314 11.8834C10.2809 11.4069 10.3258 10.9044 10.2631 10.4094C10.2005 9.91445 10.0316 9.43826 9.76781 9.01246C9.504 8.58667 9.15126 8.221 8.73301 7.93974C8.31475 7.65848 7.84054 7.46806 7.34186 7.38111C6.84317 7.29416 6.33141 7.31267 5.84055 7.43541C5.34968 7.55816 4.89093 7.78233 4.49475 8.09305L3.92781 7.17762C6.05721 5.89736 8.5037 5.22001 10.9985 5.22001C13.4932 5.22001 15.9397 5.89736 18.0691 7.17762L16.038 10.4542ZM18.8146 5.97551C16.4605 4.56132 13.7563 3.81318 10.9989 3.81318C8.24148 3.81318 5.53733 4.56132 3.1832 5.97551L2.42788 4.76021C5.01368 3.22095 7.97755 2.40733 10.9989 2.40733C14.0203 2.40733 16.9841 3.22095 19.5699 4.76021L18.8146 5.97551Z" fill="#6B6B6B"/>
</svg>
