<svg width="21" height="21" viewBox="0 0 21 21" fill="none" xmlns="http://www.w3.org/2000/svg">
<path d="M19.812 7.21804C13.412 2.81804 6.81201 5.38471 4.31201 7.21804L12.312 19.218L19.812 7.21804Z" fill="black"/>
<path d="M20.5903 6.89378C20.5538 6.74178 20.4874 6.59856 20.395 6.47243C20.3026 6.3463 20.1861 6.23977 20.0522 6.15901C17.7175 4.74663 15.0407 4 12.312 4C9.58323 4 6.90649 4.74663 4.5717 6.15901C4.43823 6.23996 4.32202 6.34644 4.22973 6.47235C4.13744 6.59825 4.07089 6.74112 4.03387 6.89278C3.99685 7.04443 3.9901 7.2019 4.014 7.35617C4.0379 7.51044 4.09198 7.65848 4.17315 7.79182L11.2981 19.4642C11.404 19.6387 11.553 19.783 11.7309 19.8831C11.9087 19.9832 12.1094 20.0358 12.3135 20.0358C12.5176 20.0358 12.7182 19.9832 12.896 19.8831C13.0739 19.783 13.2229 19.6387 13.3288 19.4642L20.4538 7.79182C20.535 7.65871 20.589 7.51073 20.6124 7.35654C20.6359 7.20235 20.6284 7.04503 20.5903 6.89378ZM7.53155 11.0129C7.72447 10.8311 7.95554 10.6946 8.20791 10.6135C8.46028 10.5323 8.72758 10.5085 8.99031 10.5438C9.25305 10.5791 9.50459 10.6726 9.72661 10.8175C9.94862 10.9623 10.1355 11.1549 10.2736 11.3812C10.4117 11.6075 10.4976 11.8617 10.5249 12.1254C10.5523 12.3891 10.5205 12.6556 10.4317 12.9054C10.343 13.1552 10.1997 13.382 10.0121 13.5694C9.82457 13.7567 9.59758 13.8999 9.34768 13.9883L7.53155 11.0129ZM14.0569 15.9819C13.7595 15.7015 13.5676 15.3274 13.5134 14.9223C13.4591 14.5173 13.5458 14.1059 13.7589 13.7572C13.972 13.4084 14.2985 13.1436 14.6837 13.007C15.0689 12.8705 15.4893 12.8705 15.8745 13.0072L14.0569 15.9819ZM16.5009 11.9792C15.8409 11.6797 15.0942 11.6319 14.4015 11.8449C13.7087 12.0579 13.1178 12.5169 12.7401 13.1355C12.3624 13.754 12.2241 14.4894 12.3511 15.2029C12.4781 15.9164 12.8618 16.5588 13.4297 17.0091L12.312 18.843L9.97409 15.0155C10.3579 14.8426 10.7006 14.59 10.9793 14.2744C11.258 13.9589 11.4665 13.5878 11.5908 13.1855C11.7151 12.7833 11.7524 12.3592 11.7003 11.9415C11.6482 11.5237 11.5079 11.1218 11.2886 10.7624C11.0693 10.4031 10.776 10.0945 10.4284 9.85708C10.0807 9.6197 9.68646 9.45899 9.27191 9.3856C8.85736 9.31222 8.43194 9.32784 8.02389 9.43143C7.61584 9.53503 7.23448 9.72423 6.90514 9.98647L6.43385 9.21386C8.20399 8.13333 10.2377 7.56166 12.3116 7.56166C14.3855 7.56166 16.4192 8.13333 18.1894 9.21386L16.5009 11.9792ZM18.8091 8.19928C16.8521 7.00573 14.6042 6.3743 12.312 6.3743C10.0198 6.3743 7.77183 7.00573 5.81487 8.19928L5.18698 7.17358C7.33653 5.87446 9.80035 5.18777 12.312 5.18777C14.8236 5.18777 17.2874 5.87446 19.437 7.17358L18.8091 8.19928Z" fill="#6B6B6B"/>
<path d="M16.812 4.21804C10.412 -0.181958 3.81201 2.38471 1.31201 4.21804L9.31201 16.218L16.812 4.21804Z" fill="black"/>
<path d="M17.5903 3.89378C17.5538 3.74178 17.4874 3.59856 17.395 3.47243C17.3026 3.3463 17.1861 3.23977 17.0523 3.15901C14.7175 1.74663 12.0407 1 9.31198 1C6.58323 1 3.90649 1.74663 1.5717 3.15901C1.43823 3.23996 1.32202 3.34644 1.22973 3.47235C1.13744 3.59825 1.07089 3.74112 1.03387 3.89278C0.996852 4.04443 0.9901 4.2019 1.014 4.35617C1.0379 4.51044 1.09198 4.65848 1.17315 4.79182L8.29815 16.4642C8.404 16.6387 8.55303 16.783 8.73088 16.8831C8.90872 16.9832 9.10937 17.0358 9.31346 17.0358C9.51756 17.0358 9.7182 16.9832 9.89605 16.8831C10.0739 16.783 10.2229 16.6387 10.3288 16.4642L17.4538 4.79182C17.535 4.65871 17.589 4.51073 17.6124 4.35654C17.6359 4.20235 17.6284 4.04503 17.5903 3.89378ZM4.53155 8.01292C4.72447 7.83111 4.95554 7.69465 5.20791 7.61349C5.46028 7.53234 5.72758 7.50854 5.99031 7.54383C6.25305 7.57912 6.50459 7.67261 6.72661 7.81747C6.94862 7.96234 7.13549 8.15493 7.2736 8.38121C7.41172 8.60748 7.49758 8.86173 7.52494 9.12541C7.5523 9.38909 7.52045 9.65555 7.43174 9.90536C7.34302 10.1552 7.19966 10.382 7.01212 10.5694C6.82457 10.7567 6.59758 10.8999 6.34768 10.9883L4.53155 8.01292ZM11.0569 12.9819C10.7595 12.7015 10.5676 12.3274 10.5134 11.9223C10.4591 11.5173 10.5458 11.1059 10.7589 10.7572C10.972 10.4084 11.2985 10.1436 11.6837 10.007C12.0689 9.87047 12.4893 9.87053 12.8745 10.0072L11.0569 12.9819ZM13.5009 8.97925C12.8409 8.6797 12.0942 8.63191 11.4015 8.84489C10.7087 9.05787 10.1178 9.5169 9.74011 10.1355C9.36242 10.754 9.22405 11.4894 9.35108 12.2029C9.47811 12.9164 9.86176 13.5588 10.4297 14.0091L9.31198 15.843L6.97409 12.0155C7.35791 11.8426 7.70056 11.59 7.9793 11.2744C8.25803 10.9589 8.46647 10.5878 8.59079 10.1855C8.7151 9.7833 8.75244 9.35924 8.70034 8.94148C8.64824 8.52372 8.50788 8.12182 8.28857 7.76245C8.06927 7.40308 7.77605 7.09447 7.42836 6.85708C7.08067 6.6197 6.68646 6.45899 6.27191 6.3856C5.85736 6.31222 5.43194 6.32784 5.02389 6.43143C4.61584 6.53503 4.23448 6.72423 3.90514 6.98647L3.43385 6.21386C5.20399 5.13333 7.23774 4.56166 9.31161 4.56166C11.3855 4.56166 13.4192 5.13333 15.1894 6.21386L13.5009 8.97925ZM15.8091 5.19928C13.8521 4.00573 11.6042 3.3743 9.31198 3.3743C7.01976 3.3743 4.77183 4.00573 2.81487 5.19928L2.18698 4.17358C4.33653 2.87446 6.80035 2.18777 9.31198 2.18777C11.8236 2.18777 14.2874 2.87446 16.437 4.17358L15.8091 5.19928Z" fill="#6B6B6B"/>
</svg>
