<svg width="21" height="21" viewBox="0 0 21 21" fill="none" xmlns="http://www.w3.org/2000/svg">
<path d="M19.2692 8.79688H18.5047C18.321 6.93895 17.3983 5.21191 15.9175 3.95449C14.4366 2.69707 12.5045 2 10.5 2C8.49554 2 6.56341 2.69707 5.08254 3.95449C3.60168 5.21191 2.67895 6.93895 2.49534 8.79688H1.73077C1.53696 8.79688 1.35108 8.86854 1.21404 8.99611C1.07699 9.12367 1 9.29668 1 9.47709C1.00321 11.0947 1.48148 12.6808 2.38308 14.0637C3.28468 15.4466 4.57531 16.5738 6.11538 17.3233V17.6396C6.11538 18.0004 6.26937 18.3464 6.54346 18.6015C6.81755 18.8567 7.1893 19 7.57692 19H13.4231C13.8107 19 14.1824 18.8567 14.4565 18.6015C14.7306 18.3464 14.8846 18.0004 14.8846 17.6396V17.3233C16.4247 16.5738 17.7153 15.4466 18.6169 14.0637C19.5185 12.6808 19.9968 11.0947 20 9.47709C20 9.29668 19.923 9.12367 19.786 8.99611C19.6489 8.86854 19.463 8.79688 19.2692 8.79688ZM17.0349 8.79688H12.3379C13.2239 7.55965 14.5643 6.66571 16.1077 6.28266C16.6124 7.04675 16.929 7.90537 17.0349 8.79688ZM14.6544 4.73518C14.8219 4.86272 14.9824 4.99735 15.1358 5.13906C13.1905 5.77603 11.5829 7.08513 10.6462 8.79518H7.95144C8.40818 7.60348 9.24905 6.57209 10.3592 5.84192C11.4693 5.11175 12.7945 4.71841 14.1538 4.71563C14.321 4.71563 14.4882 4.72328 14.6544 4.73518ZM10.5 3.35521C11.0864 3.35557 11.6701 3.42907 12.2356 3.57373C10.8585 3.8917 9.59575 4.54195 8.57468 5.45894C7.5536 6.37593 6.81026 7.52726 6.41957 8.79688H3.9651C4.14637 7.30115 4.91265 5.91983 6.11786 4.91624C7.32307 3.91265 8.8829 3.357 10.5 3.35521ZM13.8488 16.2792C13.7213 16.3337 13.6134 16.4212 13.5379 16.5313C13.4624 16.6413 13.4225 16.7693 13.4231 16.8999V17.6396H7.57692V16.8999C7.57746 16.7693 7.53761 16.6413 7.46212 16.5313C7.38664 16.4212 7.27872 16.3337 7.15125 16.2792C5.86612 15.7287 4.75915 14.8733 3.94144 13.7988C3.12374 12.7242 2.62407 11.4684 2.4926 10.1573H18.5047C18.3734 11.4681 17.8742 12.7238 17.057 13.7983C16.2398 14.8728 15.1334 15.7284 13.8488 16.2792Z" fill="#6B6B6B"/>
</svg>
