<svg width="18" height="19" viewBox="0 0 18 19" fill="none" xmlns="http://www.w3.org/2000/svg">
<path d="M4.19566 5.32887V0.77183C4.19566 0.570396 4.27353 0.377213 4.41214 0.234777C4.55076 0.0923422 4.73876 0.0123227 4.93479 0.0123227C5.13082 0.0123227 5.31882 0.0923422 5.45743 0.234777C5.59605 0.377213 5.67392 0.570396 5.67392 0.77183V5.32887C5.67392 5.53031 5.59605 5.72349 5.45743 5.86593C5.31882 6.00836 5.13082 6.08838 4.93479 6.08838C4.73876 6.08838 4.55076 6.00836 4.41214 5.86593C4.27353 5.72349 4.19566 5.53031 4.19566 5.32887ZM17.5 0.77183V18.2405C17.5 18.4419 17.4221 18.6351 17.2835 18.7775C17.1449 18.92 16.9569 19 16.7609 19C16.5648 19 16.3768 18.92 16.2382 18.7775C16.0996 18.6351 16.0217 18.4419 16.0217 18.2405V13.6835H11.587C11.3909 13.6835 11.2029 13.6034 11.0643 13.461C10.9257 13.3186 10.8478 13.1254 10.8478 12.9239C10.8822 11.1046 11.1058 9.29429 11.5149 7.52385C12.4185 3.67979 14.1314 1.10317 16.4698 0.0740329C16.5822 0.0245608 16.7048 0.00451329 16.8266 0.0156872C16.9484 0.0268612 17.0656 0.0689072 17.1677 0.138058C17.2698 0.207209 17.3536 0.301304 17.4116 0.411912C17.4696 0.52252 17.4999 0.646187 17.5 0.77183ZM16.0217 2.09147C13.0495 4.42411 12.4674 10.1062 12.3538 12.1644H16.0217V2.09147ZM8.62028 0.64746C8.6058 0.547732 8.57214 0.451964 8.52127 0.365742C8.4704 0.27952 8.40332 0.20457 8.32396 0.145264C8.24461 0.0859579 8.15455 0.0434832 8.05905 0.0203171C7.96355 -0.00284902 7.86451 -0.00624269 7.76772 0.0103339C7.67093 0.0269106 7.57832 0.0631258 7.49529 0.116867C7.41226 0.170608 7.34048 0.2408 7.28413 0.323348C7.22778 0.405895 7.18799 0.499147 7.16708 0.597663C7.14617 0.696178 7.14456 0.797986 7.16234 0.897148L7.89131 5.38868C7.89131 6.19442 7.57982 6.96715 7.02536 7.53689C6.47091 8.10664 5.71891 8.42671 4.93479 8.42671C4.15067 8.42671 3.39867 8.10664 2.84421 7.53689C2.28976 6.96715 1.97827 6.19442 1.97827 5.38868L2.70631 0.897148C2.72409 0.797986 2.72248 0.696178 2.70157 0.597663C2.68066 0.499147 2.64087 0.405895 2.58452 0.323348C2.52817 0.2408 2.45639 0.170608 2.37336 0.116867C2.29033 0.0631258 2.19772 0.0269106 2.10093 0.0103339C2.00414 -0.00624269 1.90511 -0.00284902 1.8096 0.0203171C1.7141 0.0434832 1.62405 0.0859579 1.54469 0.145264C1.46533 0.20457 1.39826 0.27952 1.34738 0.365742C1.29651 0.451964 1.26285 0.547732 1.24838 0.64746L0.509246 5.2045C0.502922 5.24564 0.499833 5.28723 0.500007 5.32887C0.501484 6.40529 0.873192 7.44653 1.54945 8.2686C2.22571 9.09067 3.16298 9.64065 4.19566 9.82136V18.2405C4.19566 18.4419 4.27353 18.6351 4.41214 18.7775C4.55076 18.92 4.73876 19 4.93479 19C5.13082 19 5.31882 18.92 5.45743 18.7775C5.59605 18.6351 5.67392 18.4419 5.67392 18.2405V9.82136C6.70659 9.64065 7.64387 9.09067 8.32013 8.2686C8.99638 7.44653 9.36809 6.40529 9.36957 5.32887C9.36944 5.2872 9.36604 5.24561 9.35941 5.2045L8.62028 0.64746Z" fill="#6B6B6B"/>
</svg>
