<svg width="242" height="152" viewBox="0 0 242 152" fill="none" xmlns="http://www.w3.org/2000/svg">
<g id="Frame 6">
<path id="Vector" d="M142.694 20.6242L146.445 17.1082L150.188 13.669L152.746 16.0873C154.172 17.3881 155.79 19.0953 156.338 19.8461C157.303 21.1025 157.709 20.909 165.667 14.7741L171.51 23.3258L175.494 20.6079C177.655 19.11 179.786 17.9195 180.17 17.9566C180.631 18.001 181.697 19.8101 182.718 22.0801C183.671 24.266 184.806 26.1593 185.19 26.1963C185.651 26.2408 187.921 25.2188 190.29 23.9737C194.222 21.7936 194.613 21.7538 195.34 23.0647C195.803 23.885 196.763 25.994 198.762 30.9952L203.341 29.3429C207.598 27.8145 207.99 27.7747 208.639 29.0783C209.033 29.8143 209.693 31.8168 210.145 33.5666C210.604 35.2395 211.301 36.8578 211.67 37.0485C212.109 37.3235 214.22 37.1394 216.361 36.6479C218.571 36.2406 220.529 36.0416 220.898 36.2323C221.183 36.4925 221.397 38.2969 221.435 40.317C221.542 42.4213 221.726 44.533 221.989 45.0237C222.244 45.5912 224.343 46.3366 231.305 47.3182L230.433 50.7242C230.018 52.6229 229.547 54.2838 229.525 54.5143C229.426 54.7374 229.376 56.1325 229.525 57C229.751 57.8749 231.283 58.7943 232.676 59.6267C234.139 60.5433 235.693 61.3136 236.077 61.3506C236.538 61.3951 236.823 61.6553 236.793 61.9626C236.756 62.3468 234.888 62.7353 229.525 68.5L232.993 73.2294C234.758 75.0283 236.223 76.7207 236.116 77.0206C236.079 77.4048 233.872 78.5879 231.21 79.6497C227.652 81.1679 226.243 82.1177 226.208 83.2777C226.204 84.1303 226.464 86.2495 226.916 87.9993C227.367 89.749 227.618 91.1692 227.534 91.2386C227.45 91.3081 225.254 91.5617 217.947 92.5631L217.487 97.3272C217.042 101.938 216.943 102.161 215.092 102.06C214.009 102.033 212.619 101.976 211.997 101.994C211.368 102.088 210.131 102.047 209.279 102.042C208.042 102 207.492 102.878 204.917 111.083L201.351 110.274C199.299 109.843 197.101 109.321 196.432 109.024C195.678 108.796 195.049 108.89 195.004 109.351C194.96 109.813 194.207 111.989 193.37 114.235C192.008 117.904 191.587 118.251 190.157 117.803C189.263 117.576 187.436 117.067 183.598 115.997L182.378 115.657L180.518 119.665C179.527 121.896 178.482 123.89 178.145 124.167C177.885 124.452 175.848 123.868 173.778 122.815C171.632 121.755 169.548 120.856 169.087 120.812C168.703 120.775 167.533 122.446 166.635 124.531C165.651 126.685 164.552 128.44 164.068 128.626C163.67 128.743 161.724 128.012 159.815 126.898C157.823 125.852 155.969 124.976 155.508 124.931C155.124 124.894 153.831 126.243 152.815 127.929C151.715 129.684 150.531 131.509 150.103 131.933C149.491 132.649 148.368 132.231 140.91 127.556L139.067 129.783C138.089 131.084 136.912 132.832 136.593 133.732C136.189 134.701 135.577 135.418 135.116 135.373C134.732 135.336 132.692 133.976 127.07 129.556L124.583 132.031C123.213 133.372 121.806 135.098 121.509 135.767C121.204 136.513 120.531 137.069 120.07 137.024C119.532 136.972 117.653 135.55 112.683 130.805L109.522 133.836C107.807 135.531 106.338 137.096 106.232 137.396C106.195 137.78 105.942 137.988 105.635 137.959C105.243 137.999 103.302 136.415 97.5466 130.974L94.3707 134.158C92.5721 135.923 90.8106 137.305 90.3496 137.26C89.9729 137.146 88.1931 135.501 83.5276 130.01L75.6716 136.698L69.1589 127.849L61.5407 134.482L58.7217 129.944C57.1076 127.384 55.6796 125.308 55.4417 125.362C55.2113 125.34 53.0953 126.377 50.8034 127.63C47.6146 129.338 46.3409 129.681 46.0309 128.875C45.6913 128.377 45.1878 127.166 44.7316 126.268C44.2753 125.371 43.6479 123.837 43.2833 122.794C42.9881 121.835 42.2172 120.985 41.7488 121.017C41.211 120.965 38.9784 121.603 32.712 123.868L31.9902 121.705C31.6404 120.508 30.9954 118.351 30.5143 116.909C30.0115 115.154 29.2479 114.228 28.2236 114.129C27.3786 114.047 25.245 114.462 23.4956 114.914C20.8641 115.668 20.2421 115.686 19.8627 114.796C19.6072 114.228 19.4111 113.046 19.4158 112.194C19.4973 111.348 19.4299 109.636 19.3254 108.307C19.2977 106.986 19.171 105.888 19.1016 105.804C19.0322 105.719 16.8191 105.351 9.32745 104.241L10.1644 101.995C10.5976 100.718 11.043 98.5118 11.1838 97.0519C11.2923 95.1234 10.8037 93.7579 9.4626 92.3876C8.476 91.3618 6.9368 90.4378 6.09174 90.3563C5.24668 90.2748 4.59973 89.7471 4.6442 89.286C4.7729 88.7556 6.34841 86.8911 11.5534 81.9642L8.41502 78.3266C6.66487 76.3741 5.29143 74.5354 5.32849 74.1512C5.43496 73.8512 7.62777 72.8218 10.2889 71.7601C12.8733 70.6909 15.0661 69.6615 15.1032 69.2773C15.1328 68.9699 14.907 68.095 14.5896 67.3664C14.3564 66.5683 14.0039 64.5955 13.6655 60.0646L23.0697 59.0327L23.5365 54.1918C23.9219 50.1961 24.2265 49.4499 25.3863 49.4842C26.0777 49.5509 28.251 49.5278 30.1864 49.5593C32.1218 49.5909 33.7573 49.516 33.8416 49.4465C33.9332 49.3003 34.3045 47.8625 34.698 46.1942C35.0147 44.5186 35.4379 42.543 35.512 41.7745C35.6999 40.6293 36.322 40.6118 45.9971 42.398L48.8218 33.2087L51.6892 34.0281C53.2035 34.4068 55.4785 34.9365 56.7077 35.055C58.6977 35.3245 59.1189 34.9773 60.7954 31.2613C61.786 29.0301 62.7469 27.1064 62.8312 27.0369C62.9228 26.8907 65.0146 27.7128 67.4683 28.8026C69.9219 29.8924 72.0063 30.7914 72.1599 30.8062C72.2368 30.8136 73.2671 28.9741 74.4881 26.7652C75.6398 24.472 77.0468 22.7464 77.5846 22.7983C78.0455 22.8427 79.9762 23.7269 81.8153 24.7574C83.6544 25.7879 85.5083 26.6647 86.0461 26.7166C86.507 26.761 87.8298 25.1048 88.8824 23.0348C90.0118 20.9722 91.1189 19.1401 91.5179 19.0234C91.84 18.8994 93.7707 19.7836 95.7412 21.0594C97.7885 22.3426 99.6276 23.3731 100.012 23.4102C100.319 23.4398 101.642 21.7836 103.071 19.8275C104.431 17.7871 105.746 16.2077 106.13 16.2447C106.438 16.2744 108.331 17.5428 113.891 21.8017L115.605 20.1057L115.717 19.9888C116.681 18.9793 118.298 17.2852 120.984 14.1873L124.127 16.9722C125.845 18.4563 127.647 19.871 128.093 20.0691C128.623 20.1978 130.377 18.8934 132.114 16.9669C134.623 14.2618 135.443 13.7981 136.544 14.4471C137.191 14.9748 138.901 16.5358 142.694 20.6242Z" fill="#00A8FF"/>
</g>
</svg>
