<svg width="119" height="63" viewBox="0 0 119 63" fill="none" xmlns="http://www.w3.org/2000/svg">
<path id="bg" d="M72.2744 3.92915L74.2856 2.23574L76.2908 0.581504L77.5237 1.89524C78.212 2.60334 78.987 3.52537 79.2443 3.92612C79.6992 4.59806 79.9117 4.51067 84.1405 1.59692L86.8695 6.14982L88.9764 4.87223C90.1197 4.16715 91.2389 3.61874 91.4334 3.64887C91.6669 3.68503 92.1576 4.64322 92.6124 5.83644C93.0343 6.98445 93.558 7.98784 93.7525 8.01797C93.9859 8.05413 95.171 7.59612 96.413 7.02663C98.478 6.02324 98.6785 6.0142 99.0107 6.70723C99.2231 7.14112 99.651 8.24997 100.525 10.8714L102.904 10.1573C105.116 9.49741 105.316 9.48837 105.609 10.1754C105.789 10.5641 106.067 11.6096 106.247 12.5196C106.432 13.3904 106.74 14.2401 106.923 14.3486C107.138 14.5023 108.219 14.4691 109.323 14.2793C110.46 14.1347 111.463 14.0895 111.645 14.1979C111.783 14.3396 111.84 15.2706 111.801 16.3072C111.795 17.3889 111.827 18.4766 111.947 18.7358C112.061 19.0341 113.108 19.477 116.625 20.1821L116.083 21.9026C115.816 22.8638 115.529 23.7015 115.511 23.819C115.454 23.9305 115.389 24.6441 115.439 25.0931C115.529 25.5481 116.283 26.0638 116.968 26.5308C117.687 27.0431 118.456 27.483 118.65 27.5131C118.884 27.5493 119.021 27.6909 118.997 27.8476C118.967 28.0435 118.005 28.1884 115.108 30.9876L116.738 33.5124C117.584 34.4856 118.282 35.3956 118.219 35.5463C118.189 35.7421 117.031 36.2845 115.645 36.7515C113.789 37.4265 113.044 37.8724 112.993 38.466C112.966 38.903 113.038 39.9967 113.218 40.9067C113.397 41.8167 113.484 42.5519 113.439 42.585C113.394 42.6182 112.269 42.6845 108.519 42.9858L108.148 45.4144C107.789 47.7647 107.732 47.8762 106.792 47.7707C106.241 47.7255 105.535 47.6562 105.218 47.6472C104.895 47.6773 104.266 47.6201 103.832 47.593C103.204 47.5357 102.899 47.9696 101.351 52.1007L99.5585 51.5824C98.5261 51.3022 97.4218 50.9707 97.0896 50.799C96.7126 50.6604 96.3893 50.6905 96.3534 50.9256C96.3175 51.1606 95.8715 52.2544 95.3806 53.3813C94.5815 55.2223 94.357 55.3881 93.6418 55.1169C93.1931 54.9745 92.2774 54.6604 90.3534 54.0006L89.7425 53.7911L88.6799 55.7918C88.1113 56.9067 87.5216 57.8981 87.3421 58.0306C87.2014 58.1692 86.1809 57.8107 85.1575 57.2111C84.0951 56.6054 83.0597 56.0841 82.8263 56.048C82.6318 56.0179 81.9883 56.8405 81.4705 57.883C80.9078 58.9587 80.2973 59.8265 80.0459 59.9079C79.8394 59.9561 78.8698 59.5252 77.9301 58.8985C76.9456 58.3049 76.0269 57.8017 75.7934 57.7655C75.5989 57.7354 74.9016 58.3892 74.3359 59.2239C73.7254 60.0917 73.0699 60.9926 72.8395 61.1975C72.5073 61.547 71.9476 61.3 68.2848 58.6876L67.2822 59.7753C66.7465 60.4141 66.097 61.2759 65.9084 61.7279C65.675 62.213 65.3428 62.5625 65.1093 62.5264C64.9148 62.4962 63.9153 61.7399 61.1802 59.3113L59.8424 60.5075C59.1062 61.1554 58.34 61.9991 58.1694 62.3335C57.9928 62.7072 57.6337 62.9723 57.4002 62.9362C57.1279 62.894 56.2122 62.1106 53.8182 59.5343L52.1213 60.9957C51.1995 61.8153 50.4064 62.5746 50.3436 62.7253C50.3136 62.9211 50.1789 63.0205 50.0233 62.9964C49.8228 63.0055 48.8802 62.1377 46.1062 59.1818L44.3973 60.7215C43.4306 61.5743 42.4938 62.2311 42.2604 62.195C42.0719 62.1257 41.2131 61.2308 38.9957 58.2809L34.8028 61.4809L31.7416 56.7562L27.6714 59.9351L26.3667 57.5276C25.6186 56.1687 24.9513 55.0628 24.8286 55.0839C24.7119 55.0658 23.6046 55.5359 22.4015 56.1114C20.7286 56.8949 20.0702 57.0335 19.9355 56.6116C19.777 56.3465 19.5555 55.7107 19.3491 55.2376C19.1426 54.7645 18.8673 53.96 18.7118 53.4146C18.5891 52.9145 18.221 52.4564 17.9816 52.4595C17.7093 52.4173 16.5541 52.6794 13.298 53.6587L12.9928 52.5288C12.8492 51.905 12.583 50.7811 12.3795 50.0279C12.1741 49.1139 11.812 48.6167 11.2933 48.5363C10.8653 48.47 9.767 48.6207 8.8632 48.8015C7.50152 49.1119 7.1843 49.1028 7.01674 48.6358C6.90304 48.3375 6.83724 47.7258 6.8642 47.2889C6.93007 46.858 6.94508 45.9782 6.93016 45.2942C6.95415 44.6162 6.92126 44.0497 6.88835 44.0045C6.85543 43.9593 5.73919 43.7062 1.95652 42.9198L2.44738 41.7929C2.70479 41.1511 2.99515 40.0332 3.10891 39.2889C3.2197 38.3036 3.01026 37.5895 2.36689 36.8483C1.89408 36.2938 1.13697 35.7756 0.709027 35.7093C0.281081 35.643 -0.0331292 35.3537 0.00279756 35.1187C0.083616 34.8505 0.939573 33.9405 3.73187 31.5662L2.23866 29.6106C1.40377 28.559 0.757418 27.5767 0.787357 27.3809C0.850212 27.2302 1.99643 26.7662 3.38206 26.2991C4.72878 25.8261 5.875 25.362 5.90494 25.1662C5.92889 25.0095 5.83914 24.5545 5.69851 24.1718C5.60277 23.756 5.48013 22.7345 5.43838 20.4023L10.2566 20.1462L10.6338 17.6784C10.9452 15.6415 11.1218 15.2679 11.7113 15.3191C12.0615 15.3733 13.1687 15.4246 14.1533 15.4969C15.1379 15.5692 15.9728 15.5782 16.0177 15.5451C16.0686 15.4728 16.2991 14.7466 16.5475 13.9029C16.7571 13.0532 17.0295 12.0528 17.0893 11.6611C17.2181 11.0796 17.5353 11.0886 22.4103 12.2848L24.1134 7.65657L25.5498 8.15977C26.3099 8.39781 27.4531 8.73528 28.0756 8.8317C29.0811 9.02755 29.3055 8.86183 30.2663 7.00571C30.835 5.89083 31.3797 4.93264 31.4246 4.8995C31.4755 4.82718 32.5169 5.30929 33.7349 5.93904C34.9528 6.56879 35.9883 7.09006 36.0661 7.10212C36.105 7.10814 36.6826 6.19515 37.368 5.09835C38.0205 3.95636 38.7867 3.11267 39.059 3.15485C39.2924 3.19101 40.25 3.70023 41.1568 4.28177C42.0635 4.86331 42.9822 5.36651 43.2545 5.40869C43.488 5.44485 44.2093 4.63431 44.8049 3.6038C45.4394 2.57932 46.0559 1.67235 46.2624 1.62414C46.43 1.5699 47.3876 2.07913 48.3542 2.79023C49.3597 3.50737 50.2664 4.08891 50.4609 4.11904C50.6166 4.14314 51.3378 3.3326 52.122 2.37139C52.8732 1.36499 53.5885 0.593616 53.783 0.623747C53.9386 0.647852 54.8663 1.35293 57.5745 3.69717L58.4963 2.87759L58.5565 2.82092C59.0763 2.33144 59.9487 1.51001 61.4053 0L62.9255 1.51864C63.7574 2.32918 64.6342 3.10657 64.8557 3.22107C65.122 3.30243 66.0528 2.68473 66.9925 1.74763C68.3483 0.433879 68.7793 0.219943 69.3209 0.584536C69.6351 0.873799 70.461 1.72351 72.2744 3.92915Z" fill="#00A8FF"/>
</svg>
