<svg width="107" height="58" viewBox="0 0 107 58" fill="none" xmlns="http://www.w3.org/2000/svg">
<path id="bg" d="M64.7716 5.43021L66.5461 3.95184L68.3154 2.50766L69.4033 3.65458C70.0105 4.27276 70.6944 5.0777 70.9215 5.42756C71.3228 6.01418 71.5103 5.93789 75.2416 3.39414L77.6496 7.36889L79.5086 6.25353C80.5173 5.63798 81.5049 5.15922 81.6766 5.18552C81.8825 5.21709 82.3155 6.05361 82.7168 7.0953C83.0891 8.09754 83.5511 8.97351 83.7228 8.99982C83.9287 9.03138 84.9744 8.63154 86.0703 8.13436C87.8924 7.25838 88.0693 7.25049 88.3624 7.85551C88.5498 8.23431 88.9274 9.20235 89.6983 11.4909L91.7976 10.8675C93.749 10.2914 93.9259 10.2835 94.1846 10.8833C94.3431 11.2226 94.5886 12.1354 94.747 12.9298C94.9106 13.6901 95.1826 14.4319 95.3436 14.5266C95.5337 14.6607 96.487 14.6318 97.4614 14.4661C98.4648 14.3398 99.3494 14.3003 99.5105 14.395C99.6319 14.5187 99.682 15.3315 99.6477 16.2364C99.6423 17.1808 99.6713 18.1304 99.7769 18.3566C99.8772 18.6171 100.801 19.0037 103.904 19.6193L103.426 21.1213C103.191 21.9605 102.937 22.6918 102.922 22.7944C102.871 22.8917 102.814 23.5147 102.858 23.9067C102.938 24.3039 103.603 24.7541 104.207 25.1619C104.841 25.609 105.52 25.9931 105.691 26.0194C105.897 26.051 106.019 26.1746 105.998 26.3114C105.971 26.4824 105.122 26.6089 102.566 29.0527L104.004 31.2568C104.751 32.1065 105.366 32.9009 105.311 33.0324C105.284 33.2034 104.262 33.6769 103.04 34.0847C101.402 34.6739 100.745 35.0632 100.7 35.5815C100.676 35.9629 100.74 36.9178 100.898 37.7122C101.056 38.5066 101.133 39.1485 101.093 39.1774C101.054 39.2064 100.061 39.2642 96.7521 39.5273L96.4246 41.6475C96.1076 43.6993 96.0574 43.7967 95.2282 43.7046C94.7424 43.6652 94.1192 43.6047 93.8393 43.5968C93.5541 43.6231 92.9996 43.5731 92.6167 43.5494C92.0622 43.4994 91.7928 43.8782 90.4274 47.4847L88.8457 47.0323C87.9348 46.7876 86.9604 46.4983 86.6673 46.3483C86.3346 46.2273 86.0494 46.2536 86.0177 46.4588C85.986 46.664 85.5925 47.6189 85.1594 48.6027C84.4543 50.21 84.2562 50.3547 83.6251 50.1179C83.2292 49.9936 82.4212 49.7194 80.7236 49.1434L80.1845 48.9605L79.247 50.7072C78.7452 51.6805 78.225 52.5459 78.0665 52.6617C77.9424 52.7827 77.042 52.4696 76.139 51.9462C75.2016 51.4174 74.288 50.9623 74.082 50.9308C73.9104 50.9045 73.3426 51.6226 72.8857 52.5328C72.3892 53.4719 71.8505 54.2295 71.6287 54.3005C71.4465 54.3426 70.591 53.9664 69.7619 53.4193C68.8931 52.9011 68.0825 52.4618 67.8766 52.4302C67.7049 52.4039 67.0896 52.9747 66.5905 53.7034C66.0518 54.461 65.4734 55.2475 65.2701 55.4264C64.977 55.7315 64.4832 55.5158 61.2513 53.2352L60.3666 54.1848C59.8939 54.7425 59.3209 55.4948 59.1545 55.8894C58.9485 56.3129 58.6554 56.6181 58.4494 56.5865C58.2778 56.5602 57.3959 55.8999 54.9825 53.7797L53.8021 54.824C53.1525 55.3896 52.4765 56.1262 52.3259 56.4182C52.1701 56.7443 51.8532 56.9758 51.6473 56.9443C51.407 56.9074 50.599 56.2235 48.4867 53.9744L46.9894 55.2502C46.176 55.9657 45.4762 56.6286 45.4208 56.7601C45.3944 56.9311 45.2755 57.0179 45.1382 56.9969C44.9613 57.0048 44.1296 56.2472 41.6819 53.6666L40.1741 55.0109C39.3211 55.7553 38.4946 56.3288 38.2886 56.2972C38.1223 56.2367 37.3645 55.4554 35.408 52.8801L31.7083 55.6738L29.0073 51.5491L25.4159 54.3243L24.2647 52.2225C23.6047 51.0361 23.0159 50.0707 22.9076 50.0891C22.8046 50.0734 21.8276 50.4837 20.7661 50.9862C19.2899 51.6701 18.709 51.7911 18.5902 51.4228C18.4503 51.1914 18.2549 50.6363 18.0727 50.2233C17.8905 49.8103 17.6476 49.108 17.5104 48.6318C17.4021 48.1952 17.0774 47.7953 16.8661 47.7979C16.6258 47.7611 15.6065 47.99 12.7335 48.8449L12.4643 47.8585C12.3376 47.3139 12.1026 46.3327 11.9231 45.6751C11.7418 44.8772 11.4223 44.4431 10.9646 44.373C10.587 44.3151 9.61794 44.4466 8.82047 44.6045C7.61899 44.8754 7.33909 44.8675 7.19124 44.4598C7.09092 44.1994 7.03286 43.6654 7.05665 43.2839C7.11476 42.9078 7.12802 42.1397 7.11485 41.5425C7.13601 40.9507 7.107 40.4561 7.07795 40.4167C7.04891 40.3772 6.06399 40.1562 2.72634 39.4697L3.15945 38.4858C3.38658 37.9255 3.64278 36.9496 3.74316 36.2999C3.84092 35.4397 3.65611 34.8162 3.08843 34.1691C2.67125 33.6851 2.00321 33.2326 1.62561 33.1748C1.24801 33.1169 0.970768 32.8644 1.00247 32.6592C1.07378 32.4251 1.82903 31.6306 4.29283 29.5578L2.97529 27.8505C2.23862 26.9325 1.66831 26.0749 1.69473 25.9039C1.75019 25.7724 2.76156 25.3673 3.98417 24.9596C5.17246 24.5466 6.18383 24.1415 6.21024 23.9705C6.23137 23.8337 6.15218 23.4365 6.0281 23.1024C5.94362 22.7394 5.83541 21.8476 5.79857 19.8116L10.0499 19.588L10.3828 17.4335C10.6575 15.6553 10.8133 15.3291 11.3335 15.3738C11.6425 15.4212 12.6195 15.4659 13.4882 15.529C14.357 15.5921 15.0937 15.6 15.1333 15.5711C15.1782 15.508 15.3816 14.874 15.6008 14.1375C15.7857 13.3956 16.026 12.5223 16.0788 12.1803C16.1924 11.6726 16.4723 11.6805 20.7738 12.7248L22.2765 8.68431L23.5439 9.12361C24.2146 9.33142 25.2233 9.62604 25.7726 9.71021C26.6598 9.8812 26.8578 9.73652 27.7056 8.1161C28.2073 7.14279 28.688 6.30628 28.7276 6.27734C28.7725 6.21421 29.6914 6.63509 30.7661 7.18487C31.8407 7.73466 32.7544 8.18974 32.823 8.20026C32.8573 8.20552 33.367 7.40846 33.9718 6.45094C34.5475 5.45396 35.2235 4.71741 35.4638 4.75424C35.6698 4.7858 36.5147 5.23036 37.3148 5.73806C38.1148 6.24575 38.9255 6.68505 39.1658 6.72187C39.3717 6.75344 40.0082 6.04582 40.5337 5.14617C41.0936 4.25179 41.6376 3.45999 41.8198 3.4179C41.9676 3.37055 42.8126 3.81511 43.6655 4.43592C44.5527 5.06199 45.3527 5.56968 45.5244 5.59598C45.6617 5.61703 46.2981 4.90941 46.99 4.07026C47.6528 3.19166 48.284 2.51824 48.4556 2.54454C48.5929 2.56559 49.4115 3.18113 51.801 5.22769L52.6144 4.51218L52.6675 4.46271C53.1262 4.03538 53.8959 3.31826 55.1812 2L56.5225 3.32579C57.2566 4.03341 58.0302 4.71209 58.2256 4.81205C58.4606 4.88307 59.2819 4.34381 60.1111 3.52571C61.3073 2.37878 61.6876 2.19201 62.1655 2.51031C62.4427 2.76284 63.1715 3.50465 64.7716 5.43021Z" stroke="#00A8FF" stroke-width="2"/>
</svg>
