<svg width="180" height="103" viewBox="0 0 180 103" fill="none" xmlns="http://www.w3.org/2000/svg">
<path d="M58.0562 85.0836L56.2532 85.1684L55.6716 85.1956L55.8956 90.0046L56.9433 89.9552L56.7665 86.161L58.1044 86.0985L58.2812 89.8926L59.3279 89.8432L59.1039 85.0342L58.0562 85.0836Z" fill="white"/>
<path d="M61.7558 84.9103L60.7083 84.9595L60.9321 89.7682L61.9796 89.7191L61.7558 84.9103Z" fill="white"/>
<path d="M61.6662 83.0016L60.6187 83.0508L60.6676 84.1028L61.7151 84.0536L61.6662 83.0016Z" fill="white"/>
<path d="M66.6775 84.6777L65.6208 84.7272L65.7986 88.5354L64.5531 88.594L64.3753 84.7857L63.3186 84.8361L63.5436 89.6451L64.5993 89.5947L65.8448 89.5362L66.6293 89.4999L66.6856 90.7084L67.7332 90.66L67.6298 88.4497L66.8543 88.486L66.6775 84.6777Z" fill="white"/>
<path d="M71.2597 84.5741C71.0016 84.4591 70.6952 84.4107 70.3417 84.4269C69.9328 84.446 69.5953 84.555 69.3282 84.7527C69.062 84.9504 68.8872 85.2188 68.8038 85.5577L69.6717 85.823C69.739 85.6899 69.8344 85.583 69.9569 85.5033C70.0795 85.4236 70.2211 85.3792 70.3808 85.3721C70.6048 85.362 70.7806 85.4125 70.9082 85.5265C71.0347 85.6394 71.104 85.8029 71.1131 86.0157L71.1312 86.4142L70.2824 86.4546C69.753 86.4798 69.3603 86.6261 69.1032 86.8934C68.846 87.1607 68.7285 87.5431 68.7526 88.0404C68.7747 88.5166 68.9083 88.8677 69.1534 89.0936C69.3985 89.3206 69.751 89.4235 70.2121 89.4013C70.424 89.3912 70.6099 89.3499 70.7676 89.2772C70.9253 89.2046 71.0528 89.1007 71.1482 88.9645C71.1864 88.911 71.2155 88.8505 71.2417 88.788L71.2648 89.2823L72.2562 89.2359L72.1035 85.9512C72.0874 85.6142 72.0071 85.3297 71.8624 85.0967C71.7198 84.8627 71.5179 84.6891 71.2597 84.5741ZM71.0197 88.3421C70.8891 88.4409 70.6892 88.4964 70.422 88.5095C70.204 88.5196 70.0373 88.4823 69.9248 88.3986C69.8113 88.3138 69.75 88.1796 69.742 87.994C69.7319 87.7751 69.7771 87.6076 69.8776 87.4936C69.979 87.3786 70.1337 87.3171 70.3427 87.307L71.1734 87.2677L71.2035 87.9214C71.2115 88.102 71.1502 88.2432 71.0197 88.3421Z" fill="white"/>
<path d="M78.6078 86.411C78.7976 86.3242 78.9382 86.2062 79.0306 86.0569C79.122 85.9076 79.1632 85.7361 79.1552 85.5454L79.1411 85.2398C79.1231 84.8473 78.9784 84.5528 78.7092 84.355C78.439 84.1573 78.0684 84.0695 77.5943 84.0917C77.1111 84.1149 76.7435 84.2562 76.4904 84.5175C76.2372 84.7787 76.1046 85.1601 76.0906 85.6625L77.096 85.615C77.1031 85.4325 77.1513 85.2922 77.2427 85.1954C77.3341 85.0985 77.4627 85.0461 77.6284 85.038C77.7851 85.0309 77.9097 85.0622 78.0001 85.1338C78.0915 85.2055 78.1397 85.3094 78.1467 85.4446L78.1558 85.6393C78.1618 85.7664 78.1327 85.8652 78.0684 85.9379C78.0041 86.0105 77.9087 86.0498 77.7831 86.0559L77.1885 86.0841L77.2296 86.9648L77.8243 86.9366C77.987 86.9285 78.1156 86.9598 78.21 87.0294C78.3044 87.099 78.3546 87.2019 78.3607 87.3381L78.3717 87.5701C78.3787 87.7215 78.3335 87.8425 78.2361 87.9343C78.1387 88.0261 77.9981 88.0756 77.8132 88.0846C77.6314 88.0927 77.4888 88.0503 77.3843 87.9565C77.2799 87.8627 77.2166 87.7184 77.1955 87.5247L76.19 87.5721C76.2242 87.9172 76.3095 88.2006 76.4451 88.4236C76.5797 88.6465 76.7666 88.809 77.0046 88.9129C77.2417 89.0158 77.53 89.0601 77.8685 89.044C78.3637 89.0208 78.7434 88.8846 79.0075 88.6354C79.2717 88.3863 79.3943 88.0503 79.3742 87.6266L79.3571 87.2655C79.346 87.0274 79.2767 86.8367 79.1502 86.6925C79.0206 86.5452 78.8408 86.4524 78.6078 86.411Z" fill="white"/>
<path d="M86.785 83.7324L85.6359 83.7859L84.978 85.3284L84.1373 83.8565L82.9932 83.911L84.4788 86.2313L83.1388 88.723L84.2739 88.6696L85.0362 87.1251L85.9393 88.5919L87.0833 88.5374L85.5124 86.2091L86.785 83.7324Z" fill="white"/>
<path d="M90.5927 83.665C90.3346 83.55 90.0282 83.5015 89.6747 83.5177C89.2658 83.5368 88.9283 83.6458 88.6612 83.8435C88.395 84.0412 88.2202 84.3096 88.1368 84.6486L89.0047 84.9139C89.072 84.7807 89.1674 84.6738 89.29 84.5941C89.4125 84.5144 89.5541 84.47 89.7138 84.4629C89.9378 84.4528 90.1136 84.5033 90.2412 84.6173C90.3677 84.7303 90.437 84.8937 90.4461 85.1066L90.4642 85.505L89.6154 85.5454C89.086 85.5706 88.6933 85.7159 88.4362 85.9842C88.179 86.2516 88.0615 86.6339 88.0856 87.1312C88.1077 87.6074 88.2413 87.9585 88.4864 88.1855C88.7315 88.4124 89.084 88.5143 89.5451 88.4931C89.757 88.4831 89.9429 88.4417 90.1006 88.3691C90.2593 88.2964 90.3858 88.1925 90.4812 88.0563C90.5194 88.0029 90.5485 87.9423 90.5747 87.8798L90.5978 88.3741L91.5892 88.3277L91.4365 85.043C91.4204 84.7061 91.3401 84.4216 91.1954 84.1885C91.0528 83.9535 90.8509 83.78 90.5927 83.665ZM90.3527 87.4319C90.2221 87.5307 90.0222 87.5862 89.755 87.5993C89.537 87.6094 89.3703 87.5721 89.2578 87.4884C89.1443 87.4036 89.083 87.2695 89.075 87.0838C89.0649 86.8649 89.1102 86.6975 89.2106 86.5835C89.3121 86.4685 89.4667 86.4069 89.6757 86.3968L90.5064 86.3575L90.5365 87.0112C90.5445 87.1928 90.4833 87.333 90.3527 87.4319Z" fill="white"/>
<path d="M95.8051 83.4311C95.6032 83.306 95.3641 83.2495 95.0879 83.2626C94.8418 83.2737 94.6228 83.3615 94.43 83.5239C94.2863 83.6449 94.1668 83.8013 94.0724 83.991L94.0442 83.3907L92.9875 83.4401L93.303 90.2043L94.3597 90.1548L94.2411 87.6025C94.3365 87.7831 94.4611 87.9274 94.6148 88.0343C94.8107 88.1705 95.0346 88.233 95.2868 88.2209C95.57 88.2078 95.8081 88.1291 96.0019 87.9859C96.1958 87.8416 96.3394 87.6378 96.4329 87.3735C96.5273 87.1092 96.5655 86.7945 96.5484 86.4303L96.4781 84.9292C96.461 84.562 96.3947 84.2512 96.2802 83.998C96.1657 83.7458 96.007 83.5562 95.8051 83.4311ZM95.4987 86.4242C95.5108 86.6865 95.4625 86.8913 95.3541 87.0366C95.2456 87.1829 95.0859 87.2605 94.8769 87.2706C94.7383 87.2767 94.6198 87.2545 94.5204 87.202C94.4209 87.1496 94.3426 87.0699 94.2873 86.9619C94.2311 86.855 94.1999 86.7228 94.1929 86.5655L94.1206 85.0079C94.1136 84.8535 94.1326 84.7203 94.1778 84.6084C94.223 84.4964 94.2934 84.4106 94.3878 84.3501C94.4822 84.2896 94.5987 84.2563 94.7363 84.2502C94.9453 84.2401 95.111 84.3037 95.2325 84.4409C95.3541 84.5781 95.4214 84.7758 95.4334 85.0351L95.4987 86.4242Z" fill="white"/>
<path d="M100.445 83.2019C100.187 83.0869 99.8803 83.0374 99.5267 83.0546C99.1179 83.0738 98.7804 83.1827 98.5132 83.3804C98.247 83.5782 98.0722 83.8465 97.9889 84.1855L98.8567 84.4508C98.924 84.3176 99.0195 84.2107 99.142 84.131C99.2645 84.0513 99.4062 84.0069 99.5659 83.9998C99.7899 83.9898 99.9657 84.0402 100.093 84.1542C100.22 84.2672 100.289 84.4306 100.298 84.6435L100.316 85.042L99.4674 85.0823C98.9381 85.1075 98.5453 85.2528 98.2882 85.5211C98.0311 85.7885 97.9135 86.1708 97.9376 86.6682C97.9597 87.1443 98.0933 87.4954 98.3384 87.7224C98.5835 87.9494 98.9361 88.0512 99.3971 88.0301C99.6091 88.02 99.7949 87.9786 99.9526 87.906C100.111 87.8333 100.238 87.7294 100.333 87.5932C100.371 87.5398 100.401 87.4793 100.427 87.4167L100.45 87.911L101.441 87.8646L101.289 84.5799C101.272 84.243 101.192 83.9585 101.047 83.7254C100.905 83.4904 100.703 83.3159 100.445 83.2019ZM100.205 86.9688C100.074 87.0677 99.8743 87.1231 99.6071 87.1363C99.3891 87.1463 99.2224 87.109 99.1099 87.0253C98.9964 86.9405 98.9351 86.8064 98.927 86.6207C98.917 86.4018 98.9622 86.2344 99.0626 86.1204C99.1641 86.0054 99.3188 85.9438 99.5277 85.9337L100.358 85.8944L100.389 86.5481C100.397 86.7297 100.335 86.8699 100.205 86.9688Z" fill="white"/>
<path d="M106.342 82.8125L105.212 82.866L104.55 84.814L103.986 84.8412L103.897 82.9275L102.84 82.9769L103.064 87.786L104.121 87.7365L104.032 85.842L104.604 85.8147L105.583 87.6679L106.787 87.6114L105.445 85.1983L106.342 82.8125Z" fill="white"/>
<path d="M107.354 83.7678L108.443 83.7163L108.62 87.5246L109.668 87.4752L109.49 83.6669L110.583 83.6155L110.536 82.6157L107.307 82.767L107.354 83.7678Z" fill="white"/>
<path d="M114.175 82.612C113.913 82.4637 113.603 82.3971 113.243 82.4143C112.871 82.4314 112.558 82.5222 112.304 82.6856C112.05 82.8491 111.86 83.0791 111.736 83.3736C111.611 83.6692 111.558 84.0203 111.577 84.4279L111.631 85.6001C111.649 85.9956 111.737 86.3275 111.892 86.5958C112.048 86.8641 112.264 87.0639 112.54 87.194C112.817 87.3242 113.148 87.3817 113.535 87.3635C113.966 87.3433 114.31 87.2313 114.571 87.0296C114.831 86.8268 114.997 86.5332 115.069 86.1499L114.14 85.8684C114.092 86.0349 114.013 86.163 113.901 86.2538C113.79 86.3446 113.648 86.393 113.475 86.4011C113.22 86.4132 113.018 86.3486 112.87 86.2064C112.721 86.0652 112.641 85.8563 112.628 85.5819L112.617 85.3408L115.08 85.2248L115.041 84.4006C115.021 83.9678 114.937 83.5996 114.788 83.2939C114.64 82.9873 114.436 82.7603 114.175 82.612ZM114.046 84.4702L112.579 84.5388L112.569 84.33C112.555 84.0364 112.612 83.8044 112.736 83.6329C112.861 83.4614 113.045 83.3696 113.288 83.3585C113.503 83.3484 113.677 83.416 113.812 83.5613C113.947 83.7065 114.022 83.9093 114.037 84.1686L114.046 84.4702Z" fill="white"/>
<path d="M119.275 82.3276C119.073 82.2025 118.834 82.146 118.558 82.1591C118.312 82.1702 118.093 82.2579 117.9 82.4204C117.757 82.5414 117.637 82.6978 117.543 82.8874L117.514 82.2872L116.458 82.3366L116.773 89.1007L117.83 89.0513L117.711 86.499C117.807 86.6796 117.931 86.8238 118.085 86.9308C118.281 87.067 118.505 87.1295 118.757 87.1174C119.04 87.1043 119.278 87.0256 119.472 86.8824C119.666 86.7381 119.81 86.5343 119.903 86.27C119.997 86.0057 120.036 85.6909 120.019 85.3268L119.948 83.8256C119.931 83.4584 119.865 83.1477 119.75 82.8945C119.636 82.6423 119.477 82.4526 119.275 82.3276ZM118.969 85.3207C118.981 85.583 118.933 85.7878 118.824 85.9331C118.716 86.0793 118.556 86.157 118.347 86.1671C118.209 86.1732 118.09 86.151 117.991 86.0975C117.891 86.045 117.813 85.9653 117.758 85.8574C117.701 85.7505 117.67 85.6183 117.663 85.4609L117.591 83.9033C117.584 83.749 117.603 83.6158 117.648 83.5038C117.693 83.3919 117.764 83.3061 117.858 83.2456C117.952 83.185 118.069 83.1518 118.207 83.1457C118.415 83.1356 118.581 83.1992 118.703 83.3364C118.824 83.4726 118.892 83.6713 118.904 83.9306L118.969 85.3207Z" fill="white"/>
<path d="M123.927 82.1063C123.664 81.9853 123.352 81.9338 122.993 81.951C122.633 81.9681 122.329 82.0488 122.08 82.1941C121.831 82.3394 121.645 82.5421 121.521 82.8034C121.398 83.0647 121.344 83.3744 121.362 83.7325L121.433 85.271C121.45 85.6321 121.531 85.9388 121.679 86.19C121.827 86.4412 122.03 86.6288 122.293 86.7509C122.554 86.873 122.865 86.9264 123.225 86.9093C123.584 86.8921 123.89 86.8104 124.14 86.6642C124.39 86.5179 124.577 86.3141 124.698 86.0528C124.82 85.7915 124.873 85.4818 124.856 85.1237L124.784 83.5721C124.767 83.214 124.686 82.9104 124.541 82.6622C124.395 82.412 124.19 82.2274 123.927 82.1063ZM123.802 85.1348C123.813 85.3729 123.765 85.5585 123.658 85.6917C123.55 85.8248 123.39 85.8964 123.178 85.9065C122.966 85.9166 122.799 85.8601 122.679 85.7371C122.56 85.614 122.495 85.4334 122.483 85.1963L122.414 83.7134C122.403 83.4813 122.452 83.2998 122.562 83.1676C122.671 83.0354 122.83 82.9648 123.04 82.9547C123.252 82.9447 123.418 83.0001 123.538 83.1222C123.658 83.2433 123.723 83.4198 123.734 83.6518L123.802 85.1348Z" fill="white"/>
<path d="M129.147 81.7403L128.301 84.3248L127.224 81.831L126.237 81.8775L126.461 86.6865L127.397 86.6421L127.265 83.7912L128.051 85.492L128.66 85.4638L129.286 83.6106L129.422 86.5473L130.359 86.5029L130.135 81.6938L129.147 81.7403Z" fill="white"/>
<path d="M77.2072 26.6425C77.1178 26.5678 77.0053 26.5255 76.8828 26.5446C76.6035 26.588 76.3243 26.6324 76.0461 26.6758C75.3801 26.7807 74.7131 26.8846 74.0472 26.9895C73.2376 27.1166 72.428 27.2437 71.6184 27.3709C70.9213 27.4798 70.2242 27.5898 69.5271 27.6987C69.1866 27.7522 68.8451 27.8036 68.5045 27.8591C68.4995 27.8601 68.4945 27.8611 68.4905 27.8611C68.3087 27.8894 68.156 27.962 68.0676 28.1335C67.9893 28.2848 67.9852 28.5038 68.0927 28.645C68.2826 28.8952 68.4955 29.1292 68.7125 29.3552C69.1655 29.8273 69.6667 30.248 70.2111 30.6112C70.8279 31.0228 71.538 31.3506 72.2783 31.4465C73.1783 31.5635 74.0643 31.3567 74.8156 30.8402C75.8602 30.1219 76.5724 28.987 77.1028 27.8571C77.1912 27.6685 77.2755 27.4778 77.3559 27.2851C77.3569 27.2821 77.3579 27.2791 77.3589 27.276C77.3981 27.1973 77.4202 27.1076 77.4121 27.0258C77.4081 26.9875 77.3991 26.9482 77.386 26.9088C77.3599 26.8029 77.3016 26.7081 77.2072 26.6425ZM75.4514 28.7418C75.4444 28.7529 75.4374 28.763 75.4293 28.7741C75.4133 28.7973 75.3972 28.8205 75.3801 28.8437C75.3389 28.9012 75.2957 28.9587 75.2525 29.0142C75.1641 29.1282 75.0727 29.2402 74.9773 29.3471C74.8939 29.4409 74.8076 29.5317 74.7182 29.6185C74.675 29.6599 74.6318 29.7012 74.5876 29.7406C74.5806 29.7466 74.5645 29.7607 74.5524 29.7718C74.5424 29.7809 74.5323 29.789 74.5273 29.793C74.3566 29.9322 74.1748 30.0593 73.9819 30.1663C73.9437 30.1875 73.9045 30.2066 73.8664 30.2268C73.8463 30.2359 73.8272 30.245 73.8071 30.253C73.7177 30.2914 73.6263 30.3257 73.5339 30.3559C73.4445 30.3852 73.3541 30.4094 73.2617 30.4296C73.2547 30.4316 73.2466 30.4326 73.2396 30.4346C73.1984 30.4407 73.1572 30.4467 73.115 30.4518C72.9383 30.473 72.7585 30.477 72.5807 30.4659C72.5787 30.4659 72.5756 30.4659 72.5726 30.4649C72.5716 30.4649 72.5706 30.4649 72.5706 30.4649C72.5254 30.4598 72.4802 30.4538 72.435 30.4477C72.3486 30.4346 72.2622 30.4185 72.1769 30.3993C72.0915 30.3801 72.0071 30.358 71.9227 30.3327C71.8826 30.3206 71.8424 30.3075 71.8022 30.2944C71.7891 30.2904 71.7761 30.2853 71.764 30.2813C71.4476 30.1562 71.1453 30.0059 70.856 29.8263C70.7837 29.7809 70.7114 29.7345 70.641 29.6871C70.63 29.68 70.6189 29.672 70.6079 29.6649C70.5808 29.6457 70.5537 29.6266 70.5265 29.6064C70.396 29.5106 70.2674 29.4107 70.1428 29.3068C69.9218 29.1232 69.7109 28.9285 69.508 28.7247C69.507 28.7237 69.507 28.7237 69.506 28.7227C70.1298 28.6248 70.7535 28.527 71.3763 28.4291C72.1859 28.302 72.9955 28.1749 73.8051 28.0478C74.5022 27.9388 75.1993 27.8289 75.8964 27.7199C75.9506 27.7118 76.0039 27.7028 76.0581 27.6947C75.8763 28.0558 75.6774 28.4069 75.4514 28.7418Z" fill="#00A8FF"/>
<path d="M108.12 28.9355C108.122 28.9331 108.123 28.932 108.124 28.9297C108.123 28.9308 108.121 28.9331 108.12 28.9355Z" fill="#00A8FF"/>
<path d="M101.919 32.6309C101.928 32.6256 101.938 32.6162 101.945 32.6025C101.944 32.6036 101.943 32.6046 101.942 32.6046C101.936 32.613 101.929 32.6214 101.919 32.6309Z" fill="#00A8FF"/>
<path d="M101.646 28.2266C101.644 28.2339 101.642 28.2423 101.641 28.2497V28.2507C101.641 28.2528 101.642 28.2549 101.642 28.2581C101.644 28.2465 101.646 28.236 101.647 28.2287C101.646 28.2287 101.646 28.2276 101.646 28.2266Z" fill="#00A8FF"/>
<path d="M105.935 31.344C105.798 31.3357 105.873 31.3388 105.935 31.344V31.344Z" fill="#00A8FF"/>
<path d="M108.086 28.9702H108.088V28.9688L108.086 28.9702Z" fill="#00A8FF"/>
<path d="M101.875 32.7279C101.879 32.7342 101.882 32.7395 101.886 32.7458C101.887 32.7269 101.873 32.7048 101.862 32.6943V32.6954C101.863 32.6996 101.868 32.7132 101.875 32.7279Z" fill="#00A8FF"/>
<path d="M108.273 27.6414C106.068 27.3428 103.818 27.6 101.672 28.1185C101.719 28.0096 101.767 27.9006 101.833 27.8018C101.831 27.8028 101.83 27.8048 101.828 27.8058C101.839 27.7917 101.879 27.7412 101.864 27.7735C102.741 26.6608 104.228 26.3309 105.457 25.7508C106.24 25.4976 107.155 24.4898 106.351 23.7564C104.897 23.251 102.128 24.3335 100.848 25.1597C100.754 24.4192 99.9211 23.941 99.3014 24.4454C98.8815 24.7884 98.7489 25.4048 98.1965 25.5945C98.2146 25.5844 98.2266 25.5773 98.2356 25.5713C97.2764 26.0676 96.1353 26.0384 95.172 26.4883C94.0219 27.4477 93.3469 28.8711 92.6227 30.1604C88.868 30.8837 85.1183 31.6302 81.3606 32.3374C81.1969 32.0993 81.0322 31.8622 80.8685 31.6242C83.4811 31.953 83.6619 32.2648 82.6664 29.5722C85.8606 32.4514 84.6382 29.6529 84.3539 27.4033C86.7004 29.6015 87.0771 30.9704 87.4095 26.7657C87.8927 27.5788 88.3768 28.3929 88.86 29.206C89.6334 30.0141 90.0181 28.3526 90.3978 27.8865C90.666 28.4646 90.6961 30.6244 91.7006 29.7084C91.9748 29.1132 93.1962 27.8835 93.0486 27.3276C92.0622 23.1985 90.7906 19.0473 88.5677 15.4044C88.0243 14.5923 86.3147 12.0128 85.269 12.3144C82.9708 13.6168 80.7319 15.0241 78.5271 16.4778C70.8861 21.763 62.5229 27.5778 58.0862 35.9883C51.954 35.8491 46.6062 40.0841 43.4271 45.0696C43.2603 45.3501 43.5154 45.799 43.857 45.7435C47.3856 45.1867 51.733 45.0374 54.3707 47.857C54.3556 47.9327 54.3406 48.0093 54.3275 48.085C49.8144 48.7064 45.3617 50.1097 41.4231 52.4269C40.8627 52.7064 41.3348 53.5689 41.8742 53.232C42.1243 53.0716 42.3844 52.9253 42.6446 52.782C57.6693 44.7761 66.0546 51.4181 80.5701 50.3417C84.4564 50.0189 88.2312 49.0555 92.011 48.1546C92.2541 48.1042 92.3746 47.7894 92.3033 47.5725C92.3033 46.7029 87.7822 48.3695 87.0469 48.3937C88.5526 46.6535 90.9262 44.9678 90.8749 42.4397C91.1381 41.224 91.123 39.9297 91.2878 38.6889C91.3269 38.2773 90.7624 38.1028 90.5023 38.3671C90.0844 38.7918 89.6666 39.2165 89.2487 39.6412C89.1633 39.0309 89.0779 38.4205 88.9926 37.8102C88.42 36.6087 87.4497 38.933 87.064 39.3476C85.7933 36.1749 85.8004 36.3848 84.2866 39.27C82.4937 36.4796 82.4957 37.1898 81.7815 39.9136C79.4813 38.5577 79.3929 38.1159 79.1769 41.0768C78.6395 41.22 78.1072 41.3834 77.5788 41.557C77.5879 41.4278 77.6009 41.2997 77.609 41.1706C77.6562 40.5643 77.8189 39.1772 77.9635 38.3227C79.2262 38.1926 80.4888 38.0634 81.7504 37.9333C82.3209 37.8324 82.336 37.2251 81.8558 36.9537C84.8903 36.6097 87.9248 36.2526 90.9493 35.8279C92.3354 35.6574 93.7115 35.4062 95.0625 35.0662C96.1644 34.9462 97.2764 35.0672 98.3803 35.1026C101.842 34.8524 101.491 35.6544 104.391 36.3222C105.663 36.7399 107.361 35.5384 105.716 34.5679C104.629 33.9606 103.309 33.8779 102.288 33.1283C102.324 33.1515 102.333 33.1566 102.329 33.1535C102.165 33.0365 101.993 32.9175 101.886 32.7399C101.886 32.7429 101.886 32.747 101.885 32.75C101.888 32.7389 101.859 32.7056 101.863 32.6915C101.863 32.6905 101.862 32.6895 101.862 32.6895L101.863 32.6905C101.873 32.6642 101.897 32.6532 101.921 32.6269C101.88 32.6431 101.948 32.6027 101.95 32.5896C101.949 32.5936 101.947 32.5967 101.945 32.5997C101.968 32.5825 101.992 32.5674 102.016 32.5543C102.014 32.5543 102.011 32.5543 102.009 32.5543C102.031 32.5482 102.097 32.5099 102.042 32.5482C102.147 32.4968 102.233 32.4726 102.343 32.4504C102.341 32.4524 102.339 32.4534 102.337 32.4544C103.934 32.407 105.529 32.9588 107.14 32.7328C109.193 32.5351 108.833 30.8181 107.004 30.578C105.719 30.3188 104.394 30.3379 103.093 30.2138C104.907 29.9556 106.807 30.1432 108.585 29.7367C109.435 29.2292 109.318 27.8159 108.273 27.6414ZM105.738 24.4323C105.738 24.4333 105.738 24.4343 105.737 24.4364C105.73 24.4283 105.728 24.4253 105.738 24.4323ZM105.702 24.507C105.698 24.511 105.695 24.515 105.691 24.5191C105.693 24.5161 105.698 24.511 105.702 24.507ZM104.386 24.7097C104.454 24.6966 104.387 24.7108 104.361 24.7148C104.369 24.7138 104.377 24.7118 104.386 24.7097ZM99.9663 25.1516C99.9914 25.1526 100.011 25.1627 99.9523 25.1556C99.9573 25.1546 99.9623 25.1526 99.9663 25.1516ZM99.8749 25.1587C99.8699 25.1627 99.8629 25.1677 99.8548 25.1738C99.8609 25.1667 99.8669 25.1597 99.8729 25.1556C99.8739 25.1556 99.8749 25.1566 99.8749 25.1587ZM99.8408 25.1203C99.8498 25.1274 99.8568 25.1365 99.8669 25.1425C99.8669 25.1435 99.8679 25.1435 99.8679 25.1445H99.8669L99.8679 25.1456C99.8046 25.1223 99.8026 25.085 99.8408 25.1203ZM95.5738 27.3377C95.606 27.3095 95.6723 27.262 95.5738 27.3377V27.3377ZM81.1618 33.665C80.3994 33.8486 79.638 34.0322 78.8766 34.2158C79.0273 33.7013 79.193 33.1909 79.3738 32.6864C79.3587 32.7268 79.3557 32.7379 79.3567 32.7339C79.4823 32.3868 79.63 32.0126 79.7796 31.6625C80.2477 32.3303 80.6897 33.0113 81.1618 33.665ZM80.2577 30.6285C80.5942 29.9647 80.9659 29.316 81.4048 28.7147C81.6469 29.429 81.889 30.1442 82.1321 30.8585C81.5073 30.7818 80.8825 30.7051 80.2577 30.6285ZM82.0527 27.9137C82.4324 27.485 82.8473 27.0865 83.3133 26.7526C83.458 27.5899 83.6026 28.4272 83.7472 29.2645C83.1827 28.8146 82.6172 28.3647 82.0527 27.9137ZM86.3348 28.063C85.6748 27.4134 85.0149 26.7637 84.3539 26.114C84.4855 26.0494 84.6282 25.9879 84.7658 25.9324C85.3664 25.6923 86.0003 25.535 86.6451 25.4855C86.5417 26.344 86.4382 27.2035 86.3348 28.063ZM89.2447 28.056C88.7324 27.1945 88.2211 26.3339 87.7089 25.4724C87.75 25.4764 87.7832 25.4805 87.7691 25.4764C88.6189 25.6328 89.3803 26.0807 90.1366 26.4802C89.8393 27.0058 89.542 27.5314 89.2447 28.056ZM91.9959 27.605C91.8241 27.8633 91.6534 28.1216 91.4816 28.3798C91.3621 27.938 91.2436 27.4961 91.124 27.0552C91.4173 27.2338 91.7076 27.4174 91.9959 27.605ZM53.3471 46.947C53.3642 46.9592 53.3843 46.9743 53.3471 46.947V46.947ZM53.1031 45.7213C50.5648 44.3806 47.5685 44.3393 44.7821 44.6823C47.7704 40.5138 52.3547 36.9356 57.6734 36.9083C56.2973 40.0689 55.2647 43.3869 54.5826 46.7685C54.1407 46.3559 53.6334 46.0089 53.1031 45.7213ZM90.2491 39.9358C90.213 40.3181 90.1758 40.7005 90.1397 41.0828C89.9538 40.9214 89.7449 40.7872 89.5219 40.6763C89.764 40.4291 90.0061 40.1829 90.2491 39.9358ZM88.2643 39.1953C88.3156 39.5645 88.3678 39.9338 88.419 40.303C88.1508 40.2445 87.8796 40.2031 87.6164 40.1718C87.8334 39.847 88.0484 39.5212 88.2643 39.1953ZM85.7281 38.5456C85.947 39.0591 86.166 39.5716 86.385 40.0851C85.8817 40.07 85.3775 40.0811 84.8743 40.1103C85.1585 39.5888 85.4438 39.0672 85.7281 38.5456ZM82.9798 39.0097C83.2581 39.4062 83.5363 39.8036 83.8145 40.2001C83.4118 40.2435 83.01 40.2969 82.6102 40.3585C82.7337 39.9085 82.8563 39.4586 82.9798 39.0097ZM80.2005 40.0568C80.5179 40.2435 80.8343 40.4291 81.1517 40.6157C80.8062 40.6863 80.4606 40.759 80.1171 40.8417C80.1452 40.5794 80.1724 40.3181 80.2005 40.0568ZM77.8089 34.6193C77.2343 36.7691 76.8797 38.9744 76.6919 41.1908C76.6638 41.6982 76.3654 42.819 77.2243 42.6596C80.8895 41.4692 84.9817 40.3918 88.8037 41.3794C92.3957 42.7665 86.6893 47.1569 85.4629 48.7276C81.3657 49.4661 77.1881 49.8524 73.0397 49.4287C67.1334 48.888 61.2663 47.2366 55.3028 47.971C56.3977 42.0886 58.262 36.0579 62.1854 31.4355C68.6592 23.9007 77.0254 18.2634 85.5051 13.2496C89.1402 16.3679 90.6158 21.9759 91.8975 26.453C89.9247 25.1788 87.73 23.9814 85.3373 24.7864C80.9619 25.9657 78.9067 30.5891 77.8089 34.6193ZM78.1253 37.3855C78.2548 36.6813 78.4075 35.9822 78.5853 35.2892C79.2764 35.9015 79.9675 36.5129 80.6585 37.1252C79.8138 37.212 78.97 37.2987 78.1253 37.3855ZM101.52 35.3094C101.524 35.3104 101.528 35.3124 101.531 35.3134C101.588 35.3326 101.547 35.3195 101.52 35.3094ZM105.496 35.3548C105.485 35.3709 105.477 35.377 105.458 35.385C105.466 35.3689 105.485 35.3578 105.496 35.3548ZM105.448 35.3901C105.431 35.3971 105.417 35.4082 105.401 35.4133C105.413 35.4002 105.435 35.3921 105.448 35.3901ZM101.959 32.8529C101.943 32.8368 101.93 32.8216 101.931 32.8186C101.932 32.8176 101.947 32.8378 101.959 32.8529ZM107.613 31.7785C107.622 31.7866 107.632 31.7936 107.64 31.8027C107.62 31.7856 107.598 31.7694 107.613 31.7785ZM107.642 31.6464C107.658 31.6282 107.669 31.6121 107.647 31.6433C107.656 31.6393 107.663 31.6353 107.674 31.6302C107.663 31.6363 107.649 31.6443 107.639 31.6554C107.639 31.6544 107.639 31.6544 107.64 31.6534C107.639 31.6544 107.638 31.6554 107.637 31.6554C107.639 31.6524 107.641 31.6504 107.642 31.6464ZM107.639 31.6484C107.632 31.6645 107.614 31.6736 107.6 31.6817C107.596 31.6796 107.605 31.6685 107.639 31.6484ZM108.089 28.969C108.088 28.969 108.087 28.969 108.086 28.97C108.083 28.971 108.08 28.971 108.077 28.969C108.079 28.97 108.083 28.97 108.087 28.969C108.096 28.9589 108.104 28.9508 108.109 28.9447C108.11 28.9447 108.11 28.9447 108.111 28.9447C108.103 28.9528 108.094 28.9609 108.087 28.97C108.088 28.969 108.088 28.969 108.089 28.969ZM108.248 28.6976C108.249 28.7248 108.245 28.7248 108.241 28.7157C108.221 28.7934 108.182 28.8721 108.124 28.9296C108.132 28.9236 108.132 28.9266 108.128 28.9337C108.125 28.9337 108.122 28.9347 108.119 28.9347C108.118 28.9357 108.116 28.9377 108.115 28.9397H108.114C108.116 28.9377 108.117 28.9367 108.119 28.9347C106.058 29.1606 103.961 29.0779 101.92 29.4683C101.193 29.5218 100.633 30.5024 101.462 30.8797C102.912 31.3044 104.49 31.1561 105.989 31.3477C105.967 31.3467 105.949 31.3457 105.934 31.3447C106.47 31.4133 107.029 31.4789 107.519 31.719C105.715 32.2184 103.863 31.3447 102.055 31.5788C100.21 32.0428 100.979 33.671 102.322 34.2269C103.27 34.7818 104.408 34.8756 105.352 35.4304C104.722 35.5757 103.722 35.2176 103.313 35.0834C101.301 34.006 100.114 34.1866 97.9504 34.1714C96.9841 34.129 95.9977 34.0352 95.0334 34.1482C94.1846 34.2975 93.368 34.5699 92.5092 34.6708C88.7073 35.3406 84.7839 35.5424 81.0111 36.2112C80.55 35.8027 80.088 35.3931 79.6269 34.9845C80.4335 34.7898 81.2401 34.5951 82.0457 34.4014C82.7016 34.1623 82.2074 33.5207 81.9342 33.1697C84.9878 32.5765 88.0413 31.9833 91.0949 31.3901C91.6986 31.1793 92.9863 31.2438 93.3489 30.7626C94.0531 29.5389 94.6447 28.1347 95.7476 27.2187C97.1508 26.8343 98.988 26.7859 99.7383 25.3261C99.7373 25.3271 99.7373 25.3271 99.7363 25.3281C99.7865 25.2747 99.8116 25.192 99.887 25.1778C100.213 26.0444 98.7851 26.8646 98.1784 27.2832C97.5908 27.709 96.731 27.6484 96.3091 28.2809C95.391 29.0386 95.9716 29.8093 96.6114 29.3372C96.7973 29.1233 96.9821 28.9084 97.1679 28.6946C98.4827 28.3183 99.6841 27.5364 100.529 26.453C101.708 25.6873 102.948 24.9488 104.36 24.7178C104.356 24.7188 104.354 24.7188 104.353 24.7188C104.356 24.7188 104.358 24.7178 104.361 24.7178C104.361 24.7178 104.361 24.7178 104.36 24.7178C104.795 24.6381 105.236 24.5917 105.675 24.5403C104.311 25.5027 102.4 25.6812 101.271 27.03C100.762 27.5536 100.359 28.7591 101.328 29.0154C102.246 29.1596 103.108 28.6129 104.019 28.5786C105.4 28.5261 106.891 28.2547 108.23 28.6189C108.229 28.6139 108.229 28.6088 108.232 28.6058C108.232 28.6058 108.233 28.6098 108.235 28.6149C108.223 28.6078 108.244 28.635 108.246 28.6401C108.245 28.6441 108.246 28.6492 108.248 28.6532C108.247 28.6522 108.247 28.6522 108.246 28.6512C108.246 28.6582 108.246 28.6643 108.246 28.6714C108.248 28.6683 108.249 28.6653 108.252 28.6623C108.252 28.6623 108.252 28.6623 108.252 28.6633C108.247 28.6673 108.246 28.6875 108.248 28.6976ZM101.964 30.0898C101.944 30.0817 101.921 30.0736 101.901 30.0676C101.946 30.0706 101.966 30.0847 101.964 30.0898ZM101.888 30.462C101.883 30.4741 101.907 30.4449 101.914 30.4418C101.904 30.4539 101.881 30.4792 101.872 30.4731C101.872 30.4731 101.879 30.4681 101.888 30.462ZM101.872 30.0524C101.869 30.0504 101.866 30.0484 101.862 30.0464C101.849 30.0312 101.851 30.0252 101.872 30.0524ZM99.7996 25.8961C99.8106 25.878 99.8498 25.8305 99.7996 25.8961V25.8961ZM101.642 28.2567C101.641 28.2618 101.64 28.2658 101.639 28.2709C101.64 28.2557 101.639 28.2366 101.645 28.2255C101.645 28.2265 101.646 28.2265 101.646 28.2275C101.646 28.2255 101.647 28.2245 101.647 28.2224C101.649 28.2436 101.661 28.2709 101.644 28.292C101.647 28.287 101.644 28.2709 101.642 28.2567ZM101.598 28.1205C101.573 28.1195 101.55 28.1175 101.529 28.1115C101.533 28.1074 101.556 28.1074 101.598 28.1205Z" fill="#00A8FF"/>
<path d="M108.241 28.7178C108.241 28.7168 108.242 28.7147 108.242 28.7136C108.243 28.7084 108.246 28.6937 108.247 28.6811C108.247 28.6769 108.246 28.6727 108.246 28.6675C108.236 28.6864 108.237 28.7084 108.241 28.7178Z" fill="#00A8FF"/>
<path d="M102.288 32.4658C102.272 32.4721 102.306 32.4773 102.337 32.4575C102.335 32.4575 102.331 32.4586 102.328 32.4586C102.316 32.4617 102.298 32.4638 102.288 32.4658Z" fill="#00A8FF"/>
<path d="M102.016 32.5574C102.025 32.5574 102.033 32.5553 102.041 32.5513C102.032 32.5543 102.026 32.5553 102.019 32.5553C102.018 32.5564 102.017 32.5564 102.016 32.5574Z" fill="#00A8FF"/>
<path d="M107.643 31.652C107.646 31.6478 107.647 31.6467 107.648 31.6436C107.647 31.6446 107.645 31.6446 107.644 31.6457C107.643 31.6467 107.643 31.6478 107.642 31.6488C107.642 31.6499 107.641 31.652 107.64 31.653C107.642 31.6541 107.642 31.653 107.643 31.652Z" fill="#00A8FF"/>
<path d="M108.246 28.6451C108.244 28.6409 108.243 28.6346 108.241 28.6294C108.238 28.6262 108.236 28.6241 108.235 28.621C108.233 28.6189 108.231 28.6178 108.229 28.6157C108.231 28.6273 108.238 28.6399 108.246 28.6483C108.245 28.6472 108.246 28.6462 108.246 28.6451Z" fill="#00A8FF"/>
<path d="M101.833 27.8023C101.849 27.791 101.859 27.7807 101.865 27.7734C101.853 27.7837 101.843 27.794 101.833 27.8023Z" fill="#00A8FF"/>
<path d="M98.2358 25.571C98.2559 25.5589 98.2659 25.5529 98.2358 25.571V25.571Z" fill="#00A8FF"/>
<path d="M99.8681 25.145C99.867 25.144 99.866 25.1429 99.865 25.1419C99.8504 25.1346 99.837 25.1273 99.8276 25.1211C99.8422 25.1315 99.8556 25.1388 99.8681 25.145Z" fill="#00A8FF"/>
<path d="M99.782 25.2695C99.7688 25.2889 99.7546 25.3072 99.7383 25.3235L99.7373 25.3246C99.7861 25.2766 99.7912 25.2633 99.782 25.2695Z" fill="#00A8FF"/>
<path d="M122.829 20.044C122.827 20.044 122.823 20.043 122.821 20.043C122.804 20.043 122.786 20.044 122.769 20.044C122.765 20.045 122.78 20.0461 122.829 20.044Z" fill="#00A8FF"/>
<path d="M139.804 32.0032C139.607 31.4958 139.127 31.1246 138.7 30.8169C137.895 30.2368 137.025 29.7536 136.149 29.2936C135.731 29.1009 135.316 28.9011 134.902 28.7014C133.908 28.2212 132.921 27.7279 131.941 27.2194C130.749 26.601 129.569 25.9614 128.414 25.2775C127.866 24.9526 127.323 24.6177 126.792 24.2646C126.67 24.1839 126.551 24.1022 126.43 24.0195C126.403 24.0013 126.377 23.9811 126.35 23.964C126.36 23.97 126.368 23.9761 126.375 23.9811C126.362 23.9721 126.348 23.963 126.34 23.9579C126.282 23.9176 126.225 23.8762 126.168 23.8349C125.958 23.6825 125.751 23.5252 125.549 23.3617C125.373 23.2185 125.203 23.0712 125.04 22.9138C124.968 22.8442 124.897 22.7726 124.829 22.6989C124.801 22.6677 124.774 22.6354 124.746 22.6051C124.875 22.7433 124.762 22.6233 124.73 22.5829C124.68 22.5204 124.633 22.4548 124.591 22.3872C124.573 22.358 124.556 22.3287 124.539 22.2984C124.523 22.2551 124.51 22.2127 124.497 22.1693C124.485 22.0472 124.483 21.9242 124.473 21.8021C124.413 21.0233 124.306 20.0679 123.711 19.496C123.208 19.0117 122.483 19.0722 121.881 19.3144C121.212 19.5837 120.562 19.9096 119.92 20.2394C118.858 20.7852 117.822 21.3824 116.822 22.0341C115.647 22.8008 114.518 23.6492 113.494 24.6117C112.531 25.5166 111.64 26.5546 111.055 27.7501C110.484 28.9142 110.259 30.2015 110.548 31.4756C110.672 32.0244 110.894 32.5621 111.217 33.0252C111.537 33.4862 111.941 33.8615 112.399 34.1803C113.348 34.839 114.51 35.1639 115.638 35.3424C117.028 35.5623 118.448 35.5815 119.85 35.522C121.396 35.4564 122.936 35.291 124.468 35.0892C125.992 34.8884 127.51 34.6473 129.029 34.4093C130.357 34.2004 131.685 33.9886 133.021 33.8393C134.173 33.7102 135.327 33.687 136.483 33.6325C137.026 33.6062 137.572 33.575 138.111 33.4953C138.549 33.4307 139.023 33.352 139.404 33.1099C139.781 32.8688 139.969 32.431 139.804 32.0032ZM124.499 22.1663C124.505 22.2308 124.527 22.2611 124.499 22.1663V22.1663ZM113.482 31.284C113.486 31.3041 113.49 31.3253 113.494 31.3465C113.494 31.3475 113.494 31.3485 113.495 31.3495C113.495 31.3505 113.495 31.3505 113.495 31.3515C113.496 31.3576 113.497 31.3647 113.499 31.3707C113.499 31.3687 113.498 31.3677 113.498 31.3667C113.506 31.4131 113.514 31.4585 113.522 31.5049C113.542 31.6229 113.561 31.7409 113.577 31.86C113.603 32.0577 113.623 32.2585 113.622 32.4582C113.622 32.4965 113.621 32.5339 113.619 32.5722C113.619 32.5742 113.619 32.5762 113.618 32.5783C113.618 32.5853 113.618 32.5924 113.617 32.6005C113.617 32.6025 113.616 32.6055 113.616 32.6075C113.615 32.6176 113.614 32.6287 113.615 32.6378C113.614 32.6307 113.614 32.6257 113.614 32.6196C113.602 32.6993 113.587 32.777 113.566 32.8557C113.555 32.8789 113.544 32.9021 113.532 32.9253C113.536 32.9253 113.532 32.9404 113.516 32.9596C113.514 32.9626 113.511 32.9646 113.509 32.9677C113.502 32.9778 113.495 32.9878 113.491 32.9979C113.494 32.9899 113.497 32.9838 113.5 32.9767C113.486 32.9919 113.472 33.007 113.458 33.0221C113.465 33.0191 113.47 33.0161 113.477 33.0131C113.467 33.0171 113.457 33.0252 113.447 33.0332C113.441 33.0393 113.435 33.0464 113.429 33.0534C113.415 33.0685 113.406 33.0685 113.41 33.0595C113.405 33.0625 113.4 33.0645 113.395 33.0675C113.399 33.0696 113.391 33.0796 113.364 33.0897C113.357 33.0928 113.349 33.0958 113.342 33.0978C113.338 33.1008 113.334 33.1028 113.331 33.1069C113.334 33.1039 113.337 33.1018 113.339 33.0998C113.327 33.1049 113.316 33.1089 113.304 33.1129C113.261 33.1281 113.217 33.1392 113.173 33.1513C113.181 33.1503 113.188 33.1493 113.199 33.1482C113.188 33.1493 113.176 33.1513 113.164 33.1533C113.163 33.1533 113.162 33.1533 113.161 33.1543C113.148 33.1573 113.134 33.1593 113.125 33.1593C113.124 33.1593 113.123 33.1593 113.123 33.1593C113.069 33.1664 113.015 33.1704 112.959 33.1735C112.835 33.1795 112.71 33.1755 112.587 33.1664C112.472 33.0696 112.363 32.9667 112.26 32.8577C112.22 32.8153 112.183 32.7699 112.143 32.7266C112.149 32.7336 112.153 32.7377 112.159 32.7437C112.157 32.7417 112.156 32.7397 112.154 32.7387C112.133 32.7124 112.112 32.6862 112.09 32.659C112.017 32.5631 111.948 32.4643 111.884 32.3614C111.821 32.2595 111.765 32.1546 111.71 32.0476C111.699 32.0234 111.688 31.9992 111.677 31.974C111.65 31.9145 111.626 31.8549 111.604 31.7944C111.552 31.6562 111.508 31.516 111.47 31.3737C111.451 31.3031 111.432 31.2315 111.417 31.1599C111.412 31.1377 111.408 31.1155 111.403 31.0923C111.403 31.0953 111.403 31.0973 111.404 31.1014C111.404 31.0943 111.402 31.0872 111.401 31.0802C111.4 31.0731 111.398 31.066 111.396 31.058C111.395 31.0519 111.394 31.0469 111.394 31.0408C111.394 31.0388 111.393 31.0358 111.392 31.0338C111.345 30.7473 111.326 30.4567 111.335 30.1662C111.337 30.1016 111.341 30.0381 111.345 29.9735C111.345 29.9685 111.346 29.9644 111.346 29.9594C111.35 29.9231 111.354 29.8867 111.358 29.8504C111.376 29.7041 111.401 29.5589 111.432 29.4156C111.462 29.2784 111.498 29.1412 111.538 29.0071C111.557 28.9425 111.578 28.8789 111.599 28.8154C111.611 28.7811 111.628 28.7448 111.636 28.7095C111.63 28.7367 111.626 28.7549 111.624 28.7649C111.629 28.7438 111.639 28.7044 111.647 28.6842C111.755 28.4088 111.881 28.1405 112.023 27.8812C112.098 27.743 112.179 27.6068 112.262 27.4726C112.3 27.4121 112.34 27.3516 112.379 27.2911C112.401 27.2578 112.423 27.2245 112.446 27.1912C112.452 27.1831 112.457 27.174 112.463 27.166C112.65 26.9047 112.845 26.6505 113.052 26.4053C113.482 25.8969 113.953 25.4237 114.447 24.9779C114.509 24.9224 114.57 24.8669 114.634 24.8114C114.664 24.7852 114.693 24.7589 114.723 24.7337C114.728 24.7287 114.734 24.7246 114.739 24.7196C114.721 24.7357 114.738 24.7216 114.767 24.6964C114.766 24.6974 114.765 24.6984 114.764 24.6994C114.76 24.7035 114.757 24.7055 114.753 24.7085C114.76 24.7024 114.766 24.6974 114.773 24.6913C114.771 24.6934 114.769 24.6944 114.767 24.6964C114.894 24.5884 115.021 24.4825 115.15 24.3786C115.416 24.1627 115.688 23.9529 115.965 23.7481C116.996 22.9844 118.084 22.2964 119.201 21.6669C119.664 21.4056 120.133 21.1544 120.608 20.9143C120.708 20.8639 120.807 20.8135 120.908 20.764C120.957 20.7398 121.007 20.7146 121.057 20.6904C121.075 20.6813 121.092 20.6732 121.11 20.6642C121.271 20.5875 121.433 20.5108 121.596 20.4362C121.82 20.3343 122.045 20.2304 122.276 20.1446C122.355 20.1154 122.435 20.0891 122.518 20.069C122.523 20.0679 122.541 20.0649 122.561 20.0619C122.551 20.0609 122.553 20.0569 122.585 20.0538C122.596 20.0528 122.606 20.0518 122.617 20.0498C122.621 20.0478 122.624 20.0468 122.625 20.0447C122.624 20.0468 122.622 20.0478 122.62 20.0498C122.631 20.0488 122.642 20.0468 122.652 20.0458C122.693 20.0417 122.732 20.0417 122.772 20.0427C122.776 20.0417 122.798 20.0397 122.823 20.0417C122.833 20.0417 122.843 20.0417 122.854 20.0417C122.844 20.0427 122.838 20.0427 122.83 20.0427C122.833 20.0427 122.836 20.0437 122.839 20.0437C122.873 20.0498 122.906 20.0589 122.94 20.0669C122.96 20.077 122.981 20.0861 123 20.0962C123.005 20.0992 123.009 20.1022 123.014 20.1043C123.009 20.0992 123.004 20.0942 122.998 20.0871C123.021 20.1113 123.053 20.1295 123.078 20.1527C123.097 20.1698 123.114 20.189 123.133 20.2072C123.136 20.2102 123.138 20.2132 123.142 20.2173C123.185 20.2748 123.223 20.3363 123.257 20.3988C123.261 20.4059 123.264 20.413 123.268 20.42C123.28 20.4493 123.293 20.4775 123.305 20.5068C123.337 20.5885 123.366 20.6722 123.39 20.756C123.416 20.8447 123.438 20.9335 123.457 21.0233C123.462 21.0485 123.467 21.0737 123.473 21.099C123.49 21.1807 123.471 21.0798 123.468 21.0707C123.488 21.1302 123.491 21.2039 123.5 21.2654C123.534 21.4954 123.556 21.7264 123.571 21.9585C123.576 22.0291 123.579 22.0977 123.585 22.1663C123.174 22.4336 122.765 22.705 122.357 22.9794C121.259 23.7148 120.171 24.4664 119.1 25.2391C117.931 26.0805 116.775 26.943 115.678 27.8772C115.209 28.2767 114.745 28.6852 114.319 29.1311C114.025 29.4398 113.72 29.7798 113.534 30.1682C113.448 30.3458 113.385 30.5415 113.391 30.7412C113.391 30.9228 113.448 31.1074 113.482 31.284ZM138.935 32.3129C138.91 32.3301 138.884 32.3462 138.857 32.3614C138.852 32.3644 138.846 32.3674 138.84 32.3694C138.671 32.4401 138.493 32.4895 138.313 32.5268C138.293 32.5308 138.273 32.5349 138.254 32.5389C138.2 32.548 138.148 32.5571 138.095 32.5651C137.97 32.5843 137.845 32.5994 137.719 32.6136C136.584 32.7387 135.439 32.7276 134.299 32.7952C133.108 32.8658 131.924 33.0363 130.743 33.2128C129.299 33.4277 127.858 33.6658 126.414 33.8816C124.888 34.1096 123.359 34.3175 121.823 34.4587C120.382 34.5898 118.932 34.6675 117.485 34.5999C117.322 34.5919 117.158 34.5828 116.994 34.5707C116.952 34.5676 116.91 34.5646 116.867 34.5606C116.856 34.5596 116.846 34.5586 116.834 34.5576C116.752 34.5505 116.67 34.5424 116.588 34.5344C116.278 34.5021 115.969 34.4607 115.661 34.4083C115.37 34.3578 115.081 34.2973 114.795 34.2236C114.654 34.1873 114.512 34.147 114.373 34.1026C114.311 34.0834 114.25 34.0632 114.189 34.0421C114.156 34.031 114.121 34.0189 114.088 34.0067C114.085 34.0057 114.084 34.0047 114.081 34.0047C113.99 33.9694 113.898 33.9331 113.809 33.8948C113.867 33.8625 113.924 33.8262 113.977 33.7848C114.306 33.5245 114.48 33.1513 114.52 32.7366C114.562 32.2968 114.509 31.864 114.434 31.4312C114.411 31.295 114.386 31.1599 114.359 31.0247C114.348 30.9662 114.337 30.9077 114.326 30.8502C114.32 30.8209 114.315 30.7916 114.309 30.7614C114.308 30.7584 114.308 30.7543 114.307 30.7513C114.307 30.7402 114.306 30.7281 114.304 30.716C114.303 30.719 114.303 30.7231 114.302 30.7271C114.302 30.7241 114.301 30.722 114.301 30.719C114.302 30.715 114.303 30.712 114.304 30.7079C114.303 30.7019 114.303 30.6958 114.302 30.6908V30.6898C114.3 30.6928 114.299 30.6958 114.298 30.6998C114.3 30.6968 114.301 30.6928 114.302 30.6888C114.3 30.6545 114.316 30.6191 114.313 30.6625C114.315 30.6575 114.317 30.6524 114.319 30.6474C114.32 30.6454 114.32 30.6434 114.32 30.6413C114.329 30.607 114.354 30.5637 114.335 30.6131C114.363 30.5546 114.394 30.4971 114.427 30.4416C114.445 30.4113 114.465 30.3811 114.485 30.3518C114.496 30.3357 114.508 30.3205 114.519 30.3044C114.581 30.2207 114.648 30.1389 114.715 30.0603C115.064 29.6527 115.457 29.2835 115.857 28.9284C115.915 28.8759 115.975 28.8245 116.034 28.773C116.064 28.7468 116.094 28.7206 116.124 28.6943C116.129 28.6903 116.134 28.6863 116.138 28.6822C116.139 28.6812 116.14 28.6802 116.142 28.6792C116.269 28.5712 116.397 28.4643 116.525 28.3584C116.795 28.1344 117.07 27.9155 117.347 27.6986C117.936 27.2356 118.536 26.7867 119.142 26.3448C120.249 25.5367 121.375 24.7529 122.511 23.9862C122.981 23.6684 123.457 23.3597 123.93 23.047C124.007 23.1499 124.092 23.2477 124.174 23.3405C124.465 23.6664 124.804 23.9499 125.147 24.2162C125.608 24.5743 126.09 24.9052 126.578 25.223C127.67 25.9352 128.805 26.5829 129.949 27.2063C131.043 27.8025 132.15 28.3735 133.266 28.9274C133.98 29.2825 134.698 29.6315 135.419 29.9705C135.521 30.0179 135.622 30.0653 135.723 30.1127C136.224 30.376 136.72 30.6464 137.205 30.9369C137.398 31.0519 137.589 31.171 137.777 31.294C137.851 31.3425 137.924 31.3919 137.997 31.4423C137.995 31.4403 137.993 31.4393 137.991 31.4373C137.999 31.4433 138.007 31.4494 138.016 31.4544C138.016 31.4544 138.017 31.4544 138.017 31.4555L138.018 31.4565C138.028 31.4635 138.038 31.4706 138.048 31.4776C138.088 31.5059 138.128 31.5351 138.167 31.5644C138.39 31.7288 138.608 31.9054 138.796 32.1102C138.811 32.1263 138.824 32.1445 138.84 32.1596C138.834 32.1536 138.83 32.1495 138.825 32.1445C138.853 32.1798 138.879 32.2161 138.904 32.2544C138.909 32.2625 138.918 32.2776 138.926 32.2938C138.928 32.2978 138.929 32.3029 138.931 32.3069C138.931 32.3049 138.93 32.3029 138.93 32.3008C138.932 32.3049 138.934 32.3079 138.936 32.3119C138.935 32.3119 138.935 32.3129 138.934 32.3129C138.934 32.314 138.935 32.315 138.935 32.316C138.934 32.317 138.934 32.317 138.933 32.318C138.936 32.316 138.936 32.315 138.935 32.3129ZM114.294 30.7684C114.297 30.7533 114.298 30.7372 114.301 30.721C114.301 30.7241 114.302 30.7261 114.302 30.7291C114.3 30.7412 114.298 30.7533 114.294 30.7684ZM138.946 32.3372C138.945 32.3412 138.945 32.3442 138.945 32.3472C138.941 32.3361 138.939 32.3271 138.937 32.32C138.938 32.319 138.938 32.319 138.939 32.318C138.94 32.321 138.941 32.323 138.942 32.3261C138.941 32.3281 138.941 32.3291 138.943 32.3271C138.944 32.3311 138.945 32.3341 138.946 32.3372ZM138.941 32.3089C138.94 32.3069 138.94 32.3059 138.939 32.3049C138.936 32.2988 138.935 32.2968 138.933 32.2918C138.934 32.2827 138.941 32.2897 138.945 32.3059C138.944 32.3069 138.942 32.3089 138.941 32.3089ZM138.949 32.3583C138.949 32.3573 138.948 32.3553 138.948 32.3543L138.949 32.3533C138.949 32.3553 138.949 32.3573 138.949 32.3583ZM138.955 32.3765C138.955 32.3755 138.956 32.3745 138.956 32.3725C138.958 32.3815 138.959 32.3896 138.962 32.3977C138.96 32.3896 138.958 32.3836 138.955 32.3765ZM138.985 32.2665C138.99 32.2585 138.994 32.2524 138.993 32.2514C138.994 32.2534 138.99 32.2595 138.985 32.2665Z" fill="#00A8FF"/>
<path d="M122.618 20.0508C122.617 20.0508 122.616 20.0508 122.615 20.0508C122.603 20.0559 122.579 20.0601 122.558 20.0631C122.571 20.0662 122.603 20.0631 122.618 20.0508Z" fill="#00A8FF"/>
<path d="M126.376 23.9795C126.411 24.0034 126.444 24.0252 126.376 23.9795V23.9795Z" fill="#00A8FF"/>
<path d="M111.624 28.7671C111.618 28.7897 111.619 28.784 111.624 28.7671V28.7671Z" fill="#00A8FF"/>
<path d="M123.011 20.1064C123.057 20.1369 123.072 20.1684 123.011 20.1064V20.1064Z" fill="#00A8FF"/>
<path d="M138.828 32.1436C138.827 32.1426 138.827 32.1415 138.826 32.1405C138.8 32.1065 138.734 32.0489 138.828 32.1436Z" fill="#00A8FF"/>
<path d="M138.934 32.3062C138.934 32.3087 138.935 32.3112 138.935 32.315L138.936 32.3137C138.936 32.3112 138.935 32.3087 138.934 32.3062Z" fill="#00A8FF"/>
<path d="M138.02 31.455C138.019 31.4539 138.019 31.4539 138.018 31.4539C138.012 31.4498 138.005 31.4456 137.999 31.4404C138.076 31.5049 138.044 31.4716 138.02 31.455Z" fill="#00A8FF"/>
<path d="M112.159 32.7451C112.186 32.7776 112.241 32.8343 112.159 32.7451V32.7451Z" fill="#00A8FF"/>
<path d="M111.393 31.0435C111.395 31.0558 111.398 31.069 111.4 31.0823C111.401 31.0864 111.402 31.0905 111.403 31.0945C111.398 30.9966 111.39 31.0109 111.393 31.0435Z" fill="#00A8FF"/>
<path d="M129.01 30.0797C129.005 30.0913 129 30.1039 128.993 30.1154C128.999 30.1081 129.005 30.0955 129.012 30.0776C129.011 30.0787 129.011 30.0787 129.01 30.0797Z" fill="#00A8FF"/>
<path d="M132.89 30.1079C132.907 30.1415 132.919 30.1908 132.89 30.1079V30.1079Z" fill="#00A8FF"/>
<path d="M132.009 28.4585C131.453 28.3082 130.854 28.2931 130.288 28.396C129.166 28.5998 127.865 29.3725 127.915 30.6759C127.98 31.7705 129.017 32.4454 129.996 32.6461C131.118 32.8751 132.392 32.632 133.25 31.8451C133.624 31.5021 133.856 31.0411 133.89 30.5347C133.924 30.0353 133.692 29.5682 133.36 29.2121C133.005 28.8308 132.504 28.5927 132.009 28.4585ZM129.236 29.8326C129.242 29.8285 129.247 29.8235 129.253 29.8194C129.235 29.8356 129.18 29.8759 129.236 29.8326ZM132.967 30.5811C132.959 30.6255 132.947 30.6689 132.935 30.7132C132.939 30.7062 132.942 30.6981 132.947 30.688C132.941 30.7001 132.936 30.7143 132.931 30.7274C132.928 30.7405 132.922 30.7526 132.918 30.7566C132.902 30.7929 132.885 30.8283 132.867 30.8636C132.848 30.8989 132.826 30.9312 132.805 30.9655C132.791 30.9836 132.777 31.0028 132.762 31.0209C132.703 31.0936 132.637 31.1591 132.569 31.2247C132.567 31.2267 132.567 31.2267 132.565 31.2288C132.551 31.2398 132.538 31.2509 132.524 31.261C132.477 31.2984 132.428 31.3327 132.378 31.366C132.29 31.4235 132.2 31.4749 132.107 31.5233C132.092 31.5314 132.085 31.5354 132.081 31.5374C132.066 31.5435 132.051 31.5485 132.038 31.5536C131.977 31.5798 131.915 31.604 131.852 31.6262C131.75 31.6625 131.645 31.6938 131.54 31.72C131.512 31.7271 131.483 31.7342 131.454 31.7402C131.453 31.7402 131.445 31.7422 131.434 31.7443C131.437 31.7432 131.369 31.7564 131.365 31.7574C131.329 31.7634 131.294 31.7685 131.258 31.7725C131.135 31.7886 131.012 31.7977 130.888 31.8018C130.827 31.8038 130.764 31.8038 130.703 31.8028C130.667 31.8018 130.631 31.8007 130.594 31.7987C130.582 31.7977 130.57 31.7977 130.557 31.7967C130.504 31.7927 130.509 31.7937 130.573 31.7987C130.51 31.8088 130.424 31.7826 130.363 31.7735C130.3 31.7644 130.238 31.7523 130.176 31.7402C130.05 31.714 129.928 31.6787 129.806 31.6393C129.805 31.6393 129.805 31.6393 129.804 31.6383C129.772 31.6252 129.74 31.6131 129.709 31.599C129.651 31.5748 129.595 31.5475 129.54 31.5193C129.491 31.4941 129.443 31.4668 129.395 31.4376C129.374 31.4245 129.353 31.4113 129.332 31.3982C129.332 31.3982 129.331 31.3982 129.331 31.3972C129.325 31.3811 129.214 31.3064 129.198 31.2933C129.156 31.257 129.116 31.2187 129.078 31.1793C129.066 31.1672 129.055 31.1551 129.044 31.142C129.043 31.14 129.042 31.139 129.04 31.1369C129.012 31.0976 128.982 31.0603 128.956 31.0189C128.942 30.9967 128.929 30.9745 128.916 30.9523C128.915 30.9503 128.914 30.9473 128.912 30.9453C128.915 30.9523 128.917 30.9594 128.921 30.9695C128.905 30.9221 128.881 30.8767 128.865 30.8283C128.853 30.7909 128.845 30.7516 128.835 30.7143C128.832 30.685 128.829 30.6568 128.827 30.6275C128.826 30.6093 128.827 30.5892 128.828 30.57C128.826 30.5629 128.824 30.5438 128.827 30.5226C128.827 30.5206 128.828 30.5196 128.828 30.5175C128.828 30.5115 128.828 30.5054 128.828 30.4994C128.829 30.5044 128.829 30.5075 128.829 30.5115C128.831 30.4984 128.833 30.4853 128.835 30.4721C128.843 30.4308 128.852 30.3894 128.864 30.3491C128.865 30.347 128.865 30.345 128.866 30.343C128.863 30.3501 128.86 30.3561 128.855 30.3652C128.866 30.343 128.874 30.3168 128.884 30.2936C128.912 30.23 128.956 30.1715 128.989 30.11C128.974 30.1322 128.97 30.1191 128.99 30.0959C128.995 30.0888 129 30.0827 129.006 30.0757C129.008 30.0716 129.01 30.0686 129.011 30.0646C129.01 30.0686 129.009 30.0706 129.007 30.0737C129.018 30.0595 129.029 30.0454 129.04 30.0313C129.075 29.9879 129.112 29.9465 129.151 29.9072C129.164 29.8931 129.248 29.8275 129.254 29.8114C129.266 29.8013 129.278 29.7922 129.29 29.7831C129.374 29.7186 129.464 29.659 129.555 29.6056C129.6 29.5793 129.647 29.5551 129.694 29.5299C129.695 29.5289 129.696 29.5289 129.697 29.5279C129.699 29.5269 129.7 29.5269 129.703 29.5259C129.723 29.5178 129.743 29.5077 129.762 29.4996C129.875 29.4512 129.991 29.4088 130.11 29.3746C130.165 29.3584 130.221 29.3433 130.277 29.3292C130.305 29.3221 130.334 29.316 130.363 29.31C130.373 29.308 130.385 29.3039 130.394 29.2999C130.504 29.2646 130.652 29.2666 130.762 29.2595C130.88 29.2515 130.997 29.2484 131.114 29.2515C131.144 29.2525 131.174 29.2535 131.205 29.2545C131.206 29.2545 131.215 29.2545 131.226 29.2555C131.228 29.2565 131.293 29.2606 131.297 29.2616C131.332 29.2656 131.367 29.2696 131.401 29.2747C131.515 29.2908 131.627 29.312 131.739 29.3403C131.793 29.3534 131.846 29.3685 131.899 29.3846C131.931 29.3937 131.962 29.4048 131.993 29.4149C131.995 29.4159 131.997 29.4159 131.998 29.4169C131.999 29.4179 132 29.4179 132.002 29.4189C132.098 29.4593 132.194 29.4996 132.285 29.5491C132.329 29.5723 132.374 29.5975 132.416 29.6237C132.433 29.6338 132.449 29.6449 132.466 29.655C132.471 29.658 132.476 29.6611 132.48 29.6651C132.483 29.6671 132.484 29.6681 132.489 29.6711C132.558 29.7276 132.628 29.7821 132.691 29.8447C132.707 29.8608 132.723 29.8769 132.738 29.8941C132.739 29.8951 132.741 29.8971 132.743 29.8991C132.752 29.9092 132.762 29.9223 132.765 29.9264C132.781 29.9476 132.796 29.9687 132.812 29.9899C132.836 30.0252 132.859 30.0626 132.88 30.0999C132.881 30.1019 132.882 30.1039 132.883 30.107C132.881 30.0999 132.878 30.0928 132.875 30.0837C132.88 30.0989 132.889 30.115 132.896 30.1302C132.912 30.1685 132.927 30.2088 132.939 30.2492C132.945 30.2704 132.951 30.2906 132.956 30.3117C132.956 30.3077 132.956 30.3047 132.956 30.2996C132.956 30.3037 132.956 30.3077 132.956 30.3117C132.957 30.3148 132.958 30.3188 132.959 30.3218C132.968 30.3612 132.958 30.4066 132.956 30.341C132.956 30.4056 132.96 30.4772 132.967 30.5387C132.972 30.5539 132.97 30.568 132.967 30.5811ZM132.979 30.5064C132.977 30.5175 132.976 30.5286 132.974 30.5397C132.966 30.458 132.985 30.4671 132.979 30.5064Z" fill="#00A8FF"/>
<path d="M132.919 30.7596C132.92 30.7565 132.922 30.7533 132.924 30.7491C132.927 30.7428 132.929 30.7355 132.932 30.7281C132.933 30.7229 132.936 30.7176 132.937 30.7124C132.917 30.7554 132.915 30.7649 132.919 30.7596Z" fill="#00A8FF"/>
<path d="M128.833 30.5146C128.833 30.5167 128.832 30.5187 128.832 30.5208C128.833 30.5381 128.834 30.5555 128.833 30.5728C128.836 30.583 128.84 30.5708 128.833 30.5146Z" fill="#00A8FF"/>
<path d="M128.918 30.9499C128.89 30.8712 128.901 30.9164 128.918 30.9499V30.9499Z" fill="#00A8FF"/>
<path d="M128.871 30.3488C128.882 30.3121 128.91 30.269 128.871 30.3488V30.3488Z" fill="#00A8FF"/>
<path d="M120.449 31.1067C120.451 31.1025 120.452 31.0983 120.454 31.0941C120.455 31.0899 120.456 31.0857 120.457 31.0815C120.447 31.1067 120.441 31.1214 120.438 31.1288C120.442 31.1225 120.446 31.1151 120.449 31.1067Z" fill="#00A8FF"/>
<path d="M119.584 28.7924C119.024 28.6411 118.419 28.625 117.851 28.7289C117.195 28.8479 116.584 29.1062 116.088 29.5611C115.673 29.9415 115.412 30.4882 115.434 31.0572C115.5 32.172 116.551 32.865 117.552 33.0698C118.691 33.3028 119.978 33.0537 120.85 32.2547C121.234 31.9036 121.467 31.4305 121.502 30.9109C121.537 30.3995 121.297 29.9213 120.957 29.5561C120.596 29.1707 120.086 28.9286 119.584 28.7924ZM116.815 30.2582C116.797 30.2734 116.802 30.2683 116.815 30.2582V30.2582ZM119.65 31.8653C119.589 31.8976 119.634 31.8723 119.663 31.8582C119.658 31.8612 119.654 31.8633 119.65 31.8653ZM120.494 30.915C120.492 30.9271 120.491 30.9392 120.489 30.9513C120.481 30.9957 120.469 31.0391 120.456 31.0824C120.461 31.0723 120.466 31.0613 120.473 31.0471C120.466 31.0623 120.46 31.0784 120.453 31.0945C120.453 31.0956 120.452 31.0966 120.452 31.0986C120.446 31.1208 120.433 31.144 120.438 31.1278C120.424 31.1601 120.409 31.1914 120.392 31.2227C120.374 31.256 120.353 31.2872 120.334 31.3205C120.321 31.3377 120.308 31.3548 120.295 31.371C120.236 31.4436 120.169 31.5092 120.102 31.5747C120.101 31.5747 120.101 31.5757 120.101 31.5757C120.09 31.5848 120.078 31.5939 120.067 31.603C120.02 31.6403 119.97 31.6746 119.92 31.7089C119.841 31.7614 119.758 31.8078 119.674 31.8532C119.654 31.8602 119.599 31.8885 119.592 31.8915C119.53 31.9177 119.468 31.9419 119.406 31.9641C119.303 32.0005 119.199 32.0317 119.093 32.058C119.065 32.065 119.036 32.0721 119.008 32.0781C118.998 32.0802 118.887 32.1104 118.97 32.0872C119.053 32.064 118.942 32.0913 118.931 32.0933C118.895 32.0993 118.859 32.1044 118.823 32.1084C118.701 32.1245 118.577 32.1336 118.454 32.1377C118.392 32.1397 118.331 32.1397 118.269 32.1387C118.233 32.1377 118.195 32.1366 118.159 32.1346C118.144 32.1336 118.113 32.1296 118.096 32.1276C117.855 32.0902 117.621 32.0529 117.386 31.9762C117.356 31.9641 117.327 31.953 117.297 31.9399C117.24 31.9157 117.184 31.8885 117.129 31.8602C117.079 31.835 117.031 31.8078 116.984 31.7785C116.965 31.7664 116.946 31.7553 116.927 31.7432C116.928 31.7452 116.929 31.7452 116.931 31.7472C116.929 31.7452 116.927 31.7442 116.926 31.7422C116.924 31.7412 116.923 31.7402 116.921 31.7392C116.892 31.72 116.876 31.6978 116.884 31.7018C116.817 31.6423 116.738 31.5909 116.677 31.5273C116.667 31.5172 116.658 31.5061 116.648 31.496C116.647 31.495 116.647 31.495 116.647 31.494C116.618 31.4547 116.589 31.4174 116.563 31.376C116.535 31.3316 116.473 31.1773 116.533 31.3367C116.515 31.2892 116.493 31.2438 116.477 31.1954C116.466 31.1611 116.458 31.1248 116.449 31.0895C116.446 31.0623 116.443 31.034 116.441 31.0068C116.44 30.9947 116.441 30.9816 116.441 30.9684C116.439 30.9644 116.436 30.9392 116.44 30.914C116.44 30.9109 116.441 30.9079 116.441 30.9049C116.441 30.8968 116.442 30.8877 116.441 30.8797C116.442 30.8877 116.442 30.8928 116.442 30.8988C116.444 30.8877 116.446 30.8756 116.448 30.8645C116.455 30.8232 116.465 30.7818 116.477 30.7415C116.477 30.7404 116.478 30.7384 116.478 30.7374C116.474 30.7465 116.47 30.7556 116.464 30.7687C116.475 30.7455 116.483 30.7213 116.493 30.6981C116.528 30.6174 116.579 30.5468 116.619 30.4691C116.551 30.6043 116.608 30.4872 116.643 30.4449C116.678 30.4015 116.715 30.3601 116.754 30.3208C116.783 30.2905 116.827 30.2623 116.851 30.229C116.862 30.2209 116.873 30.2118 116.883 30.2038C116.967 30.1392 117.056 30.0797 117.148 30.0262C117.193 30 117.238 29.9768 117.284 29.9516C117.284 29.9516 117.284 29.9516 117.285 29.9516C117.305 29.9435 117.326 29.9334 117.345 29.9253C117.458 29.8769 117.574 29.8345 117.692 29.8002C117.747 29.7841 117.804 29.769 117.86 29.7548C117.893 29.7468 118.085 29.7185 117.934 29.7357C118.068 29.7205 118.198 29.6953 118.333 29.6862C118.451 29.6782 118.568 29.6751 118.685 29.6782C118.715 29.6792 118.745 29.6802 118.775 29.6812C118.785 29.6812 118.903 29.6832 118.815 29.6822C118.729 29.6822 118.843 29.6852 118.854 29.6862C118.89 29.6903 118.925 29.6943 118.959 29.6994C119.072 29.7155 119.185 29.7367 119.296 29.7649C119.351 29.778 119.404 29.7932 119.457 29.8093C119.488 29.8184 119.519 29.8295 119.55 29.8396C119.646 29.8789 119.741 29.9203 119.833 29.9687C119.877 29.9919 119.921 30.0171 119.963 30.0434C119.98 30.0534 119.996 30.0645 120.014 30.0746C120.017 30.0766 120.02 30.0787 120.023 30.0807C120.025 30.0817 120.025 30.0827 120.027 30.0837C120.096 30.1392 120.165 30.1947 120.228 30.2572C120.238 30.2663 120.273 30.3036 120.292 30.3248C120.294 30.3268 120.295 30.3289 120.296 30.3299C120.312 30.351 120.327 30.3722 120.342 30.3934C120.366 30.4287 120.389 30.4661 120.41 30.5034C120.414 30.5104 120.417 30.5165 120.42 30.5215C120.42 30.5225 120.42 30.5225 120.421 30.5225C120.437 30.5619 120.452 30.6012 120.465 30.6416C120.471 30.6608 120.476 30.6799 120.481 30.7001C120.486 30.7717 120.49 30.8444 120.494 30.915ZM120.488 30.7162C120.499 30.7606 120.489 30.8212 120.484 30.7021C120.485 30.7072 120.487 30.7112 120.488 30.7162ZM120.5 30.8756C120.498 30.8877 120.496 30.9008 120.494 30.913C120.49 30.8131 120.506 30.8373 120.5 30.8756Z" fill="#00A8FF"/>
<path d="M116.48 30.7393C116.491 30.7015 116.521 30.648 116.48 30.7393V30.7393Z" fill="#00A8FF"/>
<path d="M116.444 30.8999C116.444 30.9019 116.443 30.904 116.443 30.906C116.443 30.9275 116.443 30.9489 116.443 30.9703C116.445 30.9744 116.447 30.956 116.444 30.8999Z" fill="#00A8FF"/>
<path d="M116.885 31.7017C116.9 31.7153 116.915 31.7289 116.929 31.7436L116.93 31.7447C116.903 31.7164 116.89 31.7038 116.885 31.7017Z" fill="#00A8FF"/>
<path d="M126.104 26.34C126.099 26.338 126.092 26.335 126.084 26.3311C126.091 26.337 126.1 26.341 126.106 26.342C126.106 26.341 126.105 26.341 126.104 26.34Z" fill="#00A8FF"/>
<path d="M123.9 26.5529C123.893 26.5655 123.887 26.5781 123.88 26.5917C123.885 26.5854 123.892 26.5728 123.902 26.5508C123.901 26.5518 123.901 26.5529 123.9 26.5529Z" fill="#00A8FF"/>
<path d="M124.32 26.2339C124.319 26.2339 124.318 26.2349 124.318 26.2349C124.307 26.2432 124.294 26.2495 124.281 26.2557C124.274 26.264 124.288 26.2619 124.32 26.2339Z" fill="#00A8FF"/>
<path d="M126.115 27.1025C126.091 27.1137 126.099 27.1114 126.115 27.1025V27.1025Z" fill="#00A8FF"/>
<path d="M124.541 25.2062C123.748 25.3585 122.889 25.9295 122.885 26.8172C122.884 26.8344 122.884 26.8515 122.885 26.8697C122.886 26.8909 122.889 26.9111 122.892 26.9312C122.979 27.701 123.706 28.1822 124.416 28.3234C125.234 28.4858 126.157 28.3093 126.782 27.7353C127.063 27.478 127.228 27.133 127.252 26.7537C127.275 26.3804 127.095 26.0334 126.845 25.7701C126.273 25.1678 125.314 25.0579 124.541 25.2062ZM126.336 26.7517C126.336 26.7557 126.335 26.7587 126.334 26.7628C126.329 26.789 126.322 26.8142 126.315 26.8394C126.315 26.8404 126.315 26.8404 126.314 26.8404C126.302 26.8636 126.291 26.8868 126.279 26.909C126.269 26.9262 126.253 26.9464 126.242 26.9655C126.234 26.9766 126.226 26.9867 126.218 26.9968C126.2 27.018 126.182 27.0382 126.162 27.0583C126.152 27.0684 126.142 27.0775 126.132 27.0876C126.126 27.0937 126.118 27.0987 126.112 27.1027C126.115 27.1007 126.119 27.0997 126.124 27.0977C126.181 27.0725 126.11 27.1088 126.09 27.1239C126.057 27.1481 126.024 27.1713 125.991 27.1925C125.942 27.2248 125.865 27.249 125.821 27.2884C125.816 27.2904 125.81 27.2934 125.804 27.2954C125.763 27.3126 125.722 27.3287 125.681 27.3438C125.61 27.3691 125.539 27.3902 125.467 27.4084C125.441 27.4145 125.414 27.4215 125.386 27.4276C125.383 27.4276 125.382 27.4276 125.378 27.4286C125.354 27.4316 125.33 27.4356 125.306 27.4387C125.22 27.4498 125.133 27.4568 125.047 27.4588C125.01 27.4599 124.973 27.4599 124.935 27.4599C124.917 27.4599 124.898 27.4588 124.88 27.4588C124.879 27.4588 124.85 27.4578 124.829 27.4568C124.826 27.4568 124.824 27.4568 124.823 27.4558C124.8 27.4528 124.776 27.4508 124.753 27.4467C124.706 27.4407 124.661 27.4326 124.616 27.4235C124.534 27.4074 124.452 27.3862 124.373 27.361C124.369 27.36 124.361 27.357 124.353 27.3539C124.345 27.3509 124.337 27.3479 124.334 27.3459C124.296 27.3297 124.257 27.3126 124.22 27.2944C124.196 27.2823 124.073 27.1976 124.036 27.1834C124.027 27.1764 124.018 27.1703 124.009 27.1633C123.984 27.1421 123.961 27.1209 123.938 27.0987C123.929 27.0906 123.921 27.0815 123.913 27.0725C123.899 27.0533 123.885 27.0351 123.872 27.016C123.859 26.9958 123.847 26.9655 123.831 26.9433C123.828 26.9363 123.825 26.9292 123.822 26.9211C123.816 26.903 123.811 26.8848 123.807 26.8667C123.806 26.8515 123.803 26.8364 123.803 26.8233C123.803 26.8142 123.804 26.788 123.804 26.7698C123.805 26.7658 123.805 26.7628 123.806 26.7597C123.811 26.7335 123.818 26.7083 123.825 26.6831C123.825 26.6821 123.825 26.6821 123.826 26.6821C123.842 26.6518 123.863 26.6205 123.881 26.5892C123.871 26.6003 123.87 26.5882 123.887 26.5681C123.891 26.563 123.895 26.558 123.9 26.5529C123.902 26.5479 123.906 26.5418 123.908 26.5368C123.906 26.5428 123.904 26.5469 123.902 26.5509C123.906 26.5459 123.909 26.5418 123.913 26.5368C123.937 26.5085 123.961 26.4813 123.987 26.4551C123.997 26.445 124.007 26.4359 124.017 26.4258C124.018 26.4248 124.018 26.4248 124.019 26.4238C124.018 26.4238 124.018 26.4248 124.017 26.4248C124.019 26.4228 124.021 26.4218 124.023 26.4198C124.021 26.4208 124.02 26.4228 124.018 26.4238C124.049 26.4097 124.039 26.4077 124.024 26.4188C124.036 26.4097 124.048 26.3996 124.06 26.3905C124.118 26.3481 124.178 26.3098 124.239 26.2745C124.25 26.2674 124.265 26.2614 124.279 26.2553C124.282 26.2513 124.29 26.2462 124.304 26.2402C124.308 26.2382 124.312 26.2362 124.316 26.2352C124.318 26.2331 124.321 26.2321 124.323 26.2301C124.321 26.2321 124.32 26.2331 124.318 26.2341C124.328 26.2301 124.338 26.2251 124.348 26.221C124.42 26.1908 124.494 26.1645 124.57 26.1423C124.618 26.1282 124.742 26.0727 124.792 26.0879C124.786 26.0859 124.681 26.104 124.777 26.0919C124.795 26.0899 124.813 26.0869 124.831 26.0848C124.874 26.0798 124.916 26.0748 124.959 26.0717C125.046 26.0647 125.133 26.0626 125.221 26.0647C125.238 26.0647 125.32 26.0576 125.33 26.0697C125.328 26.0677 125.217 26.0566 125.315 26.0687C125.338 26.0717 125.362 26.0737 125.385 26.0778C125.46 26.0879 125.533 26.102 125.605 26.1191C125.644 26.1282 125.681 26.1383 125.719 26.1494C125.729 26.1524 125.764 26.1645 125.786 26.1716C125.806 26.1797 125.838 26.1928 125.848 26.1968C125.877 26.2089 125.905 26.223 125.932 26.2362C125.946 26.2432 126.036 26.3058 126.083 26.331C126.065 26.3169 126.052 26.2977 126.084 26.3249C126.091 26.33 126.098 26.335 126.104 26.3401C126.107 26.3411 126.11 26.3421 126.112 26.3421C126.11 26.3431 126.108 26.3421 126.106 26.3421C126.11 26.3451 126.114 26.3481 126.118 26.3512C126.143 26.3713 126.167 26.3935 126.19 26.4157C126.202 26.4278 126.222 26.4561 126.238 26.4682C126.243 26.4742 126.247 26.4803 126.252 26.4863C126.267 26.5075 126.281 26.5287 126.293 26.5509C126.295 26.5549 126.298 26.56 126.3 26.565C126.306 26.5812 126.314 26.5973 126.32 26.6145C126.322 26.6205 126.327 26.6387 126.331 26.6568C126.333 26.674 126.336 26.6932 126.336 26.7012C126.338 26.7153 126.336 26.7345 126.336 26.7517Z" fill="#00A8FF"/>
<path d="M113.498 31.3679C113.497 31.3628 113.495 31.3577 113.494 31.3526C113.494 31.3505 113.493 31.3495 113.493 31.3475C113.487 31.3148 113.471 31.2505 113.498 31.3679Z" fill="#00A8FF"/>
<path d="M113.499 32.9773C113.502 32.9743 113.505 32.9712 113.508 32.9682C113.512 32.963 113.516 32.9569 113.519 32.9518C113.524 32.9437 113.527 32.9345 113.532 32.9253C113.527 32.9253 113.516 32.9396 113.499 32.9773Z" fill="#00A8FF"/>
<path d="M113.614 32.6207C113.615 32.6166 113.616 32.6125 113.616 32.6085C113.617 32.5983 113.618 32.588 113.619 32.5789C113.618 32.5452 113.607 32.535 113.614 32.6207Z" fill="#00A8FF"/>
<path d="M114.336 30.6123C114.331 30.6238 114.325 30.6343 114.32 30.6459C114.32 30.6469 114.319 30.6469 114.319 30.648C114.318 30.6522 114.317 30.6564 114.316 30.6595C114.326 30.6396 114.332 30.6238 114.336 30.6123Z" fill="#00A8FF"/>
<path d="M114.314 30.6626C114.31 30.672 114.306 30.6815 114.302 30.6899V30.691C114.306 30.6826 114.309 30.6741 114.313 30.6668C114.314 30.6657 114.314 30.6636 114.314 30.6626Z" fill="#00A8FF"/>
<path d="M114.304 30.709C114.304 30.7121 114.305 30.7142 114.305 30.7174C114.308 30.7027 114.309 30.6912 114.312 30.6807C114.308 30.6901 114.306 30.6996 114.304 30.709Z" fill="#00A8FF"/>
<path d="M113.408 33.0609C113.416 33.0568 113.424 33.0526 113.431 33.0474C113.436 33.0432 113.442 33.0391 113.448 33.0339C113.452 33.0297 113.455 33.0256 113.459 33.0225C113.427 33.0391 113.412 33.0526 113.408 33.0609Z" fill="#00A8FF"/>
<path d="M114.311 30.6809C114.313 30.6728 114.315 30.6658 114.317 30.6577C114.316 30.6607 114.314 30.6638 114.313 30.6668C114.312 30.6708 114.311 30.6759 114.311 30.6809Z" fill="#00A8FF"/>
<path d="M113.126 33.1596C113.139 33.1576 113.153 33.1555 113.165 33.1534C113.168 33.1524 113.171 33.1514 113.174 33.1514C113.115 33.1565 113.111 33.1606 113.126 33.1596Z" fill="#00A8FF"/>
<path d="M113.339 33.1005C113.34 33.1005 113.341 33.0995 113.342 33.0995C113.357 33.0882 113.377 33.0779 113.395 33.0676C113.39 33.0645 113.37 33.0717 113.339 33.1005Z" fill="#00A8FF"/>
<path d="M126.689 29.2352C126.658 29.103 126.555 28.9981 126.43 28.9396C126.379 28.9134 126.321 28.8972 126.261 28.8902C126.222 28.8851 126.183 28.8851 126.145 28.8891C125.491 28.9214 124.838 28.9537 124.184 28.986C124.087 28.991 123.992 28.9951 123.896 29.0001C123.546 29.0173 123.367 29.3482 123.441 29.6639C123.443 29.675 123.445 29.6861 123.446 29.6972C123.463 29.8203 123.473 29.9434 123.474 30.0674C123.474 30.1027 123.474 30.1381 123.473 30.1734C123.473 30.1835 123.472 30.1945 123.471 30.2046C123.461 30.2823 123.45 30.36 123.431 30.4367C123.424 30.4659 123.414 30.4942 123.406 30.5224C123.401 30.5345 123.396 30.5476 123.39 30.5597C123.375 30.592 123.357 30.6233 123.34 30.6546C123.345 30.6485 123.351 30.6435 123.358 30.6354C123.35 30.6435 123.343 30.6536 123.336 30.6636V30.6647C123.328 30.6808 123.317 30.6919 123.311 30.6969C123.31 30.6979 123.31 30.699 123.309 30.7C123.286 30.7282 123.258 30.7514 123.234 30.7787C123.233 30.7797 123.232 30.7797 123.231 30.7807C123.212 30.7948 123.192 30.8109 123.173 30.8261C123.091 30.8886 123.007 30.9471 122.919 31.0016C122.8 31.0763 122.672 31.1398 122.557 31.2215C122.172 31.4929 121.959 31.9237 121.831 32.3675C121.73 32.7186 121.713 33.1241 121.892 33.453C121.974 33.6043 122.173 33.6921 122.34 33.682C123.105 33.6356 123.87 33.5892 124.635 33.5428C124.742 33.5357 124.851 33.5297 124.958 33.5226C125.267 33.5035 125.45 33.2432 125.428 32.9607C125.43 32.9678 125.431 32.9668 125.429 32.9496C125.425 32.9153 125.42 32.881 125.419 32.8457C125.418 32.8235 125.418 32.8003 125.418 32.7781C125.418 32.7771 125.418 32.7761 125.418 32.7741C125.426 32.7216 125.433 32.6702 125.448 32.6187C125.449 32.6147 125.45 32.6107 125.452 32.6066C125.469 32.5774 125.48 32.534 125.495 32.5057C125.511 32.4745 125.53 32.4452 125.547 32.415C125.56 32.3978 125.573 32.3817 125.587 32.3645C125.619 32.3272 125.652 32.2919 125.689 32.2576C125.696 32.2505 125.704 32.2434 125.711 32.2364C125.713 32.2344 125.714 32.2344 125.715 32.2324C125.731 32.2213 125.747 32.2092 125.751 32.2071C125.841 32.1406 125.941 32.0911 126.032 32.0276C126.71 31.5544 126.854 30.6647 126.793 29.8919C126.771 29.671 126.739 29.449 126.689 29.2352ZM125.682 32.2566C125.681 32.2545 125.693 32.2455 125.706 32.2354C125.699 32.2414 125.692 32.2475 125.682 32.2566ZM125.792 30.3136C125.791 30.3489 125.79 30.3842 125.788 30.4195C125.789 30.4094 125.791 30.3983 125.792 30.3852C125.79 30.4003 125.789 30.4155 125.787 30.4306C125.785 30.4599 125.778 30.5093 125.781 30.475C125.772 30.5466 125.761 30.6172 125.745 30.6879C125.736 30.7302 125.725 30.7726 125.713 30.814C125.71 30.824 125.707 30.8331 125.704 30.8432C125.675 30.9088 125.645 30.9744 125.608 31.0359C125.614 31.0288 125.619 31.0228 125.627 31.0137C125.618 31.0238 125.611 31.0349 125.603 31.046C125.589 31.0682 125.567 31.0914 125.572 31.0833C125.559 31.0984 125.545 31.1146 125.531 31.1287C125.548 31.1146 125.529 31.1398 125.506 31.1549C125.506 31.1549 125.505 31.1549 125.505 31.1559C125.494 31.166 125.483 31.1761 125.473 31.1872C125.483 31.1771 125.49 31.1691 125.497 31.162C125.463 31.1852 125.429 31.2084 125.393 31.2296C124.952 31.4909 124.615 31.8702 124.467 32.3665C124.45 32.423 124.438 32.4805 124.428 32.539C123.886 32.5723 123.344 32.6046 122.802 32.6379C122.807 32.6157 122.812 32.5935 122.819 32.5713C122.819 32.5703 122.825 32.5532 122.83 32.537C122.838 32.5158 122.856 32.4674 122.856 32.4664C122.875 32.421 122.895 32.3766 122.916 32.3322C122.938 32.2878 122.96 32.2435 122.986 32.2011C122.991 32.193 122.996 32.1849 123.001 32.1769C123.022 32.1516 123.043 32.1254 123.066 32.1012C123.113 32.0709 123.157 32.0346 123.206 32.0054C123.532 31.8076 123.892 31.6129 124.119 31.2952C124.377 30.934 124.472 30.5154 124.48 30.0755C124.48 30.0463 124.479 30.016 124.478 29.9867C124.911 29.9655 125.344 29.9444 125.777 29.9232C125.789 30.0523 125.795 30.1824 125.792 30.3136Z" fill="#00A8FF"/>
<path d="M123.341 30.6548C123.304 30.6947 123.301 30.7052 123.31 30.6989C123.318 30.6884 123.327 30.6768 123.336 30.6642C123.338 30.6611 123.339 30.6579 123.341 30.6548Z" fill="#00A8FF"/>
<path d="M125.505 31.157C125.508 31.1538 125.512 31.1507 125.515 31.1476C125.522 31.1414 125.526 31.1351 125.532 31.1289C125.526 31.1341 125.514 31.1445 125.497 31.1622C125.5 31.1601 125.503 31.159 125.505 31.157Z" fill="#00A8FF"/>
<path d="M125.594 31.0603C125.598 31.0561 125.602 31.0509 125.606 31.0456C125.607 31.0446 125.607 31.0435 125.608 31.0425C125.609 31.0404 125.61 31.0383 125.611 31.0352C125.587 31.0635 125.575 31.0792 125.572 31.0834C125.58 31.0761 125.587 31.0687 125.594 31.0603Z" fill="#00A8FF"/>
<path d="M125.786 30.4429C125.787 30.4389 125.787 30.4338 125.787 30.4297C125.787 30.4287 125.787 30.4276 125.787 30.4266C125.787 30.4236 125.787 30.4215 125.787 30.4185C125.784 30.447 125.782 30.4644 125.781 30.4746C125.783 30.4654 125.785 30.4542 125.786 30.4429Z" fill="#00A8FF"/>
<path d="M45.3737 57.5446C37.34 58.6432 38.5182 69.3336 38.8457 75.3774C38.929 76.2571 39.0235 77.1388 39.1591 78.0124C39.2926 78.8669 42.2036 78.6863 42.0951 77.9953C41.5517 72.1754 40.2328 64.1684 44.3612 59.4179C44.6474 65.5203 44.9347 71.6226 45.221 77.7249C45.2592 78.533 48.1932 78.4775 48.157 77.7077C47.8497 71.1615 47.5423 64.6143 47.2349 58.0681C47.2058 57.4386 45.6981 57.5234 45.3737 57.5446Z" fill="white"/>
<path d="M88.4622 55.9859C79.4663 56.8958 81.0674 69.3759 81.8298 76.1027C82.0065 77.2013 84.9235 77.0721 84.7658 76.0865C84.6252 75.1998 84.5167 74.3029 84.4363 73.4051C85.5503 73.3284 86.6703 73.2074 87.7581 72.943C87.8023 73.8994 87.8495 74.8588 87.8937 75.8151C87.9439 76.8966 90.879 76.8512 90.8298 75.798C90.5324 69.4485 90.2321 63.098 89.9348 56.7485C89.9046 56.1392 88.9002 55.9566 88.4622 55.9859ZM86.2394 72.0755C85.6065 72.1542 84.9767 72.2177 84.3419 72.2611C84.1993 67.6054 83.5594 61.7967 87.062 58.1659C87.275 62.7056 87.4879 67.2483 87.7039 71.788C87.2197 71.907 86.7315 72.0089 86.2394 72.0755Z" fill="white"/>
<path d="M138.662 54.2437C130.092 54.62 131.75 67.7517 132.41 73.6876C132.498 74.2384 135.396 73.9822 135.346 73.6705C135.2 72.7575 135.09 71.8364 135.006 70.9113C136.12 70.7863 137.23 70.6117 138.334 70.4241C138.38 71.4168 138.426 72.4064 138.474 73.3991C138.495 73.8692 141.428 73.7945 141.41 73.3819C141.114 67.097 140.819 60.8091 140.524 54.5242C140.506 54.1388 138.812 54.2366 138.662 54.2437ZM135.344 69.7209C135.202 69.7371 135.06 69.7532 134.919 69.7684C134.755 65.0794 134.25 59.4532 137.641 55.7146C137.853 60.233 138.065 64.7535 138.28 69.272C137.304 69.4425 136.323 69.5918 135.344 69.7209Z" fill="white"/>
<path d="M68.1621 60.6558C67.5051 55.4463 58.8215 55.3716 57.9165 60.4359C57.7689 64.4146 58.2801 68.4327 58.3203 72.4246C57.0768 72.8433 55.8624 73.3487 54.6791 73.9187C54.425 68.5175 54.1719 63.1173 53.9177 57.7161C53.8846 57.018 50.9506 57.0785 50.9817 57.7333C51.2891 64.2795 51.5964 70.8267 51.9038 77.3729C51.9369 78.071 54.871 78.0104 54.8398 77.3557C54.8057 76.6314 54.7715 75.9061 54.7374 75.1817C55.9257 74.5663 57.1401 74.0438 58.4137 73.606C59.2213 79.1141 68.8421 78.6087 68.7075 72.8231C68.4594 68.7929 68.594 64.6689 68.1621 60.6558ZM66.0095 72.0342C66.3882 77.1459 61.4703 78.1608 61.0977 72.8625C60.8767 69.1873 60.7822 65.5637 60.5994 61.8936C60.5331 60.3955 60.8626 58.851 62.1795 58.0601C66.6594 56.5923 65.3978 65.4729 65.7765 68.0524C65.8227 69.033 66.0316 70.7803 66.0095 72.0342Z" fill="white"/>
<path d="M107.62 69.4053C107.401 65.0331 107.182 60.6639 106.966 56.2927C106.937 55.7207 105.867 55.6108 105.491 55.6299C103.341 55.7389 101.191 55.8468 99.0383 55.9558C98.6777 55.9729 97.5466 56.0567 97.5778 56.6418C97.8831 62.7945 98.1915 68.9483 98.4999 75.1011C98.5471 76.0625 101.483 76.004 101.436 75.0759C101.373 73.8068 101.308 72.5377 101.247 71.2686C101.011 66.5877 100.778 61.9098 100.545 57.2289C101.72 57.1704 102.894 57.1089 104.068 57.0504C104.361 62.961 104.657 68.8666 104.954 74.7742C105.001 75.7356 107.937 75.6801 107.89 74.749C107.8 72.9856 107.71 71.1728 107.62 69.4053Z" fill="white"/>
<path d="M114.238 68.487C114.03 64.3226 113.821 60.1612 113.613 55.9958C113.577 55.2654 110.644 55.332 110.677 56.021C110.986 62.1738 111.291 68.3276 111.599 74.4803C111.635 75.2107 114.57 75.1431 114.535 74.4551C114.437 72.4809 114.337 70.4652 114.238 68.487Z" fill="white"/>
<path d="M81.3907 57.2035C81.4148 56.9543 81.3104 56.6638 81.0141 56.7001C76.9852 57.2106 72.9311 56.9906 68.9243 56.3833C68.5366 56.3278 68.3377 56.7102 68.396 57.0522C68.397 57.2842 68.5688 57.4819 68.7978 57.5132C70.3296 57.7261 71.8644 57.9298 73.4053 58.0388C73.6925 64.1431 73.9798 70.2445 74.2661 76.3488C74.3233 77.5614 77.2594 77.5231 77.2041 76.3316C76.9209 70.2697 76.6346 64.2077 76.3493 58.1457C77.5688 58.1447 78.7902 58.0862 80.0126 57.9641C80.548 57.9056 81.3998 57.9551 81.3907 57.2035Z" fill="white"/>
<path d="M128.273 71.674C128.206 71.6761 128.114 71.6791 128.01 71.6872C127.751 66.17 127.493 60.6507 127.235 55.1355C127.213 54.7139 124.28 54.7905 124.297 55.1527C124.586 61.3226 124.878 67.4965 125.166 73.6675C125.006 73.6755 124.918 73.6755 125.066 73.7209C122.947 73.1792 121.874 70.9487 121.369 68.9835H121.366C120.44 65.3226 120.538 61.4558 120.893 57.7242C120.967 56.9554 121.052 56.1857 121.172 55.422C121.209 55.1819 118.318 54.9156 118.236 55.4392C117.393 62.1882 116.033 76.2067 126.692 74.1779C126.498 75.3219 130.097 75.2735 130.15 74.3424C129.913 72.6698 130.564 71.6327 128.273 71.674Z" fill="white"/>
</svg>
